<svg version="1.1" xmlns="http://www.w3.org/2000/svg" xmlns:xlink="http://www.w3.org/1999/xlink" width="400" height="400" viewBox="0 0 400 400"><defs/><g/><g transform="scale(1,1) scale(1,1)"><path fill="none" stroke="rgb(255,0,0)" paint-order="fill stroke markers" d=" M 350 150 L 243.7532889043741 159.99234928897204 L 267.0820393249937 264.12678195541844 L 224.7467110956259 166.1679607770176 L 132.91796067500633 220.53423027509677 L 213 150 L 132.9179606750063 79.46576972490324 L 224.7467110956259 133.8320392229824 L 267.0820393249937 35.87321804458156 L 243.7532889043741 140.00765071102796 L 350 150 L 350 150" stroke-opacity="1" stroke-linecap="round" stroke-miterlimit="10" stroke-width="0.001"/><path fill="none" stroke="rgb(255,0,0)" paint-order="fill stroke markers" d=" M 280 150 L 240.9217294240618 157.9351009059484 L 245.45084971874738 197.55282581475768 L 225.8282705759382 162.8392629699846 L 189.54915028125265 179.38926261462365 L 216.5 150 L 189.54915028125262 120.61073738537635 L 225.8282705759382 137.16073703001544 L 245.45084971874735 102.44717418524232 L 240.9217294240618 142.0648990940516 L 280 150 L 280 150" stroke-opacity="1" stroke-linecap="round" stroke-miterlimit="10" stroke-width="0.001"/><path fill="none" stroke="rgb(255,0,0)" paint-order="fill stroke markers" d=" M 530 150 L 249.41640786499875 164.10684605501936 L 322.7050983124842 435.31695488854604 L 222.58359213500125 172.8253563910837 L -12.70509831248421 326.335575687742 L 206 150 L -12.705098312484239 -26.33557568774191 L 222.58359213500125 127.17464360891631 L 322.70509831248415 -135.3169548885461 L 249.41640786499875 135.89315394498064 L 530 150 L 530 150" stroke-opacity="1" stroke-linecap="round" stroke-miterlimit="10" stroke-width="0.001"/><path fill="none" stroke="rgb(255,0,0)" paint-order="fill stroke markers" d=" M 350 150 L 249.41640786499875 164.10684605501936 L 267.0820393249937 264.12678195541844 L 222.58359213500125 172.8253563910837 L 132.91796067500633 220.53423027509677 L 206 150 L 132.9179606750063 79.46576972490324 L 222.58359213500125 127.17464360891631 L 267.0820393249937 35.87321804458156 L 249.41640786499875 135.89315394498064 L 350 150 L 350 150" stroke-opacity="1" stroke-linecap="round" stroke-miterlimit="10" stroke-width="0.001"/><path fill="none" stroke="rgb(255,0,0)" paint-order="fill stroke markers" d=" M 280 150 L 243.7532889043741 159.99234928897204 L 245.45084971874738 197.55282581475768 L 224.7467110956259 166.1679607770176 L 189.54915028125265 179.38926261462365 L 213 150 L 189.54915028125262 120.61073738537635 L 224.7467110956259 133.8320392229824 L 245.45084971874735 102.44717418524232 L 243.7532889043741 140.00765071102796 L 280 150 L 280 150" stroke-opacity="1" stroke-linecap="round" stroke-miterlimit="10" stroke-width="0.001"/><path fill="none" stroke="rgb(255,0,0)" paint-order="fill stroke markers" d=" M 530 150 L 260.742645786248 172.33583958711398 L 322.7050983124842 435.31695488854604 L 218.257354213752 186.14014761921584 L -12.70509831248421 326.335575687742 L 192 150 L -12.705098312484239 -26.33557568774191 L 218.257354213752 113.85985238078416 L 322.70509831248415 -135.3169548885461 L 260.742645786248 127.66416041288602 L 530 150 L 530 150" stroke-opacity="1" stroke-linecap="round" stroke-miterlimit="10" stroke-width="0.001"/><path fill="none" stroke="rgb(255,0,0)" paint-order="fill stroke markers" d=" M 350 150 L 255.07952682562336 168.22134282106666 L 267.0820393249937 264.12678195541844 L 220.42047317437664 179.48275200514976 L 132.91796067500633 220.53423027509677 L 199 150 L 132.9179606750063 79.46576972490324 L 220.42047317437664 120.51724799485024 L 267.0820393249937 35.87321804458156 L 255.07952682562336 131.77865717893332 L 350 150 L 350 150" stroke-opacity="1" stroke-linecap="round" stroke-miterlimit="10" stroke-width="0.001"/><path fill="none" stroke="rgb(255,0,0)" paint-order="fill stroke markers" d=" M 280 150 L 246.58484838468644 162.04959767199568 L 245.45084971874738 197.55282581475768 L 223.6651516153136 169.49665858405064 L 189.54915028125265 179.38926261462365 L 209.5 150 L 189.54915028125262 120.61073738537635 L 223.66515161531356 130.50334141594936 L 245.45084971874735 102.44717418524232 L 246.5848483846864 137.9504023280043 L 280 150 L 280 150" stroke-opacity="1" stroke-linecap="round" stroke-miterlimit="10" stroke-width="0.001"/><path fill="none" stroke="rgb(255,0,0)" paint-order="fill stroke markers" d=" M 530 150 L 272.06888370749726 180.5648331192086 L 322.7050983124842 435.31695488854604 L 213.93111629250274 199.454938847348 L -12.70509831248421 326.335575687742 L 178 150 L -12.705098312484239 -26.33557568774191 L 213.93111629250274 100.54506115265201 L 322.70509831248415 -135.3169548885461 L 272.06888370749726 119.43516688079139 L 530 150 L 530 150" stroke-opacity="1" stroke-linecap="round" stroke-miterlimit="10" stroke-width="0.001"/><path fill="none" stroke="rgb(255,0,0)" paint-order="fill stroke markers" d=" M 350 150 L 260.742645786248 172.33583958711398 L 267.0820393249937 264.12678195541844 L 218.257354213752 186.14014761921584 L 132.91796067500633 220.53423027509677 L 192 150 L 132.9179606750063 79.46576972490324 L 218.257354213752 113.85985238078416 L 267.0820393249937 35.87321804458156 L 260.742645786248 127.66416041288602 L 350 150 L 350 150" stroke-opacity="1" stroke-linecap="round" stroke-miterlimit="10" stroke-width="0.001"/><path fill="none" stroke="rgb(255,0,0)" paint-order="fill stroke markers" d=" M 280 150 L 249.41640786499875 164.10684605501936 L 245.45084971874738 197.55282581475768 L 222.58359213500125 172.8253563910837 L 189.54915028125265 179.38926261462365 L 206 150 L 189.54915028125262 120.61073738537635 L 222.58359213500125 127.17464360891631 L 245.45084971874735 102.44717418524232 L 249.41640786499875 135.89315394498064 L 280 150 L 280 150" stroke-opacity="1" stroke-linecap="round" stroke-miterlimit="10" stroke-width="0.001"/><path fill="none" stroke="rgb(255,0,0)" paint-order="fill stroke markers" d=" M 530 150 L 283.39512162874655 188.79382665130322 L 322.7050983124842 435.31695488854604 L 209.60487837125348 212.76973007548014 L -12.70509831248421 326.335575687742 L 164 150 L -12.705098312484239 -26.33557568774191 L 209.60487837125345 87.23026992451986 L 322.70509831248415 -135.3169548885461 L 283.39512162874655 111.20617334869675 L 530 150 L 530 150" stroke-opacity="1" stroke-linecap="round" stroke-miterlimit="10" stroke-width="0.001"/><path fill="none" stroke="rgb(255,0,0)" paint-order="fill stroke markers" d=" M 350 150 L 266.40576474687265 176.45033635316128 L 267.0820393249937 264.12678195541844 L 216.09423525312738 192.7975432332819 L 132.91796067500633 220.53423027509677 L 185 150 L 132.9179606750063 79.46576972490324 L 216.09423525312735 107.20245676671809 L 267.0820393249937 35.87321804458156 L 266.40576474687265 123.5496636468387 L 350 150 L 350 150" stroke-opacity="1" stroke-linecap="round" stroke-miterlimit="10" stroke-width="0.001"/><path fill="none" stroke="rgb(255,0,0)" paint-order="fill stroke markers" d=" M 280 150 L 252.24796734531105 166.164094438043 L 245.45084971874738 197.55282581475768 L 221.50203265468895 176.15405419811674 L 189.54915028125265 179.38926261462365 L 202.5 150 L 189.54915028125262 120.61073738537635 L 221.50203265468895 123.84594580188327 L 245.45084971874735 102.44717418524232 L 252.24796734531105 133.835905561957 L 280 150 L 280 150" stroke-opacity="1" stroke-linecap="round" stroke-miterlimit="10" stroke-width="0.001"/><path fill="none" stroke="rgb(255,0,0)" paint-order="fill stroke markers" d=" M 530 150 L 294.7213595499958 197.02282018339787 L 322.7050983124842 435.31695488854604 L 205.27864045000422 226.0845213036123 L -12.70509831248421 326.335575687742 L 150 150 L -12.705098312484239 -26.33557568774191 L 205.2786404500042 73.91547869638772 L 322.70509831248415 -135.3169548885461 L 294.7213595499958 102.97717981660213 L 530 150 L 530 150" stroke-opacity="1" stroke-linecap="round" stroke-miterlimit="10" stroke-width="0.001"/><path fill="none" stroke="rgb(255,0,0)" paint-order="fill stroke markers" d=" M 350 150 L 272.06888370749726 180.5648331192086 L 267.0820393249937 264.12678195541844 L 213.93111629250274 199.454938847348 L 132.91796067500633 220.53423027509677 L 178 150 L 132.9179606750063 79.46576972490324 L 213.93111629250274 100.54506115265201 L 267.0820393249937 35.87321804458156 L 272.06888370749726 119.43516688079139 L 350 150 L 350 150" stroke-opacity="1" stroke-linecap="round" stroke-miterlimit="10" stroke-width="0.001"/><path fill="none" stroke="rgb(255,0,0)" paint-order="fill stroke markers" d=" M 280 150 L 255.07952682562336 168.22134282106666 L 245.45084971874738 197.55282581475768 L 220.42047317437664 179.48275200514976 L 189.54915028125265 179.38926261462365 L 199 150 L 189.54915028125262 120.61073738537635 L 220.42047317437664 120.51724799485024 L 245.45084971874735 102.44717418524232 L 255.07952682562336 131.77865717893332 L 280 150 L 280 150" stroke-opacity="1" stroke-linecap="round" stroke-miterlimit="10" stroke-width="0.001"/><path fill="none" stroke="rgb(255,0,0)" paint-order="fill stroke markers" d=" M 530 150 L 306.04759747124507 205.25181371549246 L 322.7050983124842 435.31695488854604 L 200.95240252875496 239.39931253174444 L -12.70509831248421 326.335575687742 L 136 150 L -12.705098312484239 -26.33557568774191 L 200.95240252875493 60.60068746825557 L 322.70509831248415 -135.3169548885461 L 306.04759747124507 94.74818628450751 L 530 150 L 530 150" stroke-opacity="1" stroke-linecap="round" stroke-miterlimit="10" stroke-width="0.001"/><path fill="none" stroke="rgb(255,0,0)" paint-order="fill stroke markers" d=" M 350 150 L 277.7320026681219 184.67932988525592 L 267.0820393249937 264.12678195541844 L 211.76799733187812 206.11233446141406 L 132.91796067500633 220.53423027509677 L 171 150 L 132.9179606750063 79.46576972490324 L 211.7679973318781 93.88766553858594 L 267.0820393249937 35.87321804458156 L 277.7320026681219 115.32067011474408 L 350 150 L 350 150" stroke-opacity="1" stroke-linecap="round" stroke-miterlimit="10" stroke-width="0.001"/><path fill="none" stroke="rgb(255,0,0)" paint-order="fill stroke markers" d=" M 280 150 L 257.91108630593567 170.27859120409033 L 245.45084971874738 197.55282581475768 L 219.33891369406433 182.8114498121828 L 189.54915028125265 179.38926261462365 L 195.5 150 L 189.54915028125262 120.61073738537635 L 219.3389136940643 117.18855018781721 L 245.45084971874735 102.44717418524232 L 257.91108630593567 129.72140879590967 L 280 150 L 280 150" stroke-opacity="1" stroke-linecap="round" stroke-miterlimit="10" stroke-width="0.001"/><path fill="none" stroke="rgb(255,0,0)" paint-order="fill stroke markers" d=" M 530 150 L 317.37383539249436 213.4808072475871 L 322.7050983124842 435.31695488854604 L 196.6261646075057 252.7141037598766 L -12.70509831248421 326.335575687742 L 122 150 L -12.705098312484239 -26.33557568774191 L 196.62616460750567 47.28589624012342 L 322.70509831248415 -135.3169548885461 L 317.3738353924943 86.51919275241288 L 530 150 L 530 150" stroke-opacity="1" stroke-linecap="round" stroke-miterlimit="10" stroke-width="0.001"/><path fill="none" stroke="rgb(255,0,0)" paint-order="fill stroke markers" d=" M 350 150 L 283.39512162874655 188.79382665130322 L 267.0820393249937 264.12678195541844 L 209.60487837125348 212.76973007548014 L 132.91796067500633 220.53423027509677 L 164 150 L 132.9179606750063 79.46576972490324 L 209.60487837125345 87.23026992451986 L 267.0820393249937 35.87321804458156 L 283.39512162874655 111.20617334869675 L 350 150 L 350 150" stroke-opacity="1" stroke-linecap="round" stroke-miterlimit="10" stroke-width="0.001"/><path fill="none" stroke="rgb(255,0,0)" paint-order="fill stroke markers" d=" M 280 150 L 260.742645786248 172.33583958711398 L 245.45084971874738 197.55282581475768 L 218.257354213752 186.14014761921584 L 189.54915028125265 179.38926261462365 L 192 150 L 189.54915028125262 120.61073738537635 L 218.257354213752 113.85985238078416 L 245.45084971874735 102.44717418524232 L 260.742645786248 127.66416041288602 L 280 150 L 280 150" stroke-opacity="1" stroke-linecap="round" stroke-miterlimit="10" stroke-width="0.001"/><path fill="none" stroke="rgb(255,0,0)" paint-order="fill stroke markers" d=" M 530 150 L 328.7000733137436 221.70980077968173 L 322.7050983124842 435.31695488854604 L 192.2999266862564 266.02889498800874 L -12.70509831248421 326.335575687742 L 108 150.00000000000003 L -12.705098312484239 -26.33557568774191 L 192.2999266862564 33.97110501199127 L 322.70509831248415 -135.3169548885461 L 328.7000733137436 78.29019922031824 L 530 150 L 530 150" stroke-opacity="1" stroke-linecap="round" stroke-miterlimit="10" stroke-width="0.001"/><path fill="none" stroke="rgb(255,0,0)" paint-order="fill stroke markers" d=" M 350 150 L 289.05824058937117 192.90832341735054 L 267.0820393249937 264.12678195541844 L 207.44175941062883 219.42712568954622 L 132.91796067500633 220.53423027509677 L 157 150 L 132.9179606750063 79.46576972490324 L 207.44175941062883 80.5728743104538 L 267.0820393249937 35.87321804458156 L 289.05824058937117 107.09167658264944 L 350 150 L 350 150" stroke-opacity="1" stroke-linecap="round" stroke-miterlimit="10" stroke-width="0.001"/><path fill="none" stroke="rgb(255,0,0)" paint-order="fill stroke markers" d=" M 280 150 L 263.57420526656034 174.39308797013763 L 245.45084971874738 197.55282581475768 L 217.1757947334397 189.4688454262489 L 189.54915028125265 179.38926261462365 L 188.5 150 L 189.54915028125262 120.61073738537635 L 217.1757947334397 110.53115457375114 L 245.45084971874735 102.44717418524232 L 263.5742052665603 125.60691202986236 L 280 150 L 280 150" stroke-opacity="1" stroke-linecap="round" stroke-miterlimit="10" stroke-width="0.001"/><path fill="none" stroke="rgb(255,0,0)" paint-order="fill stroke markers" d=" M 530 150 L 340.0263112349928 229.93879431177635 L 322.7050983124842 435.31695488854604 L 187.97368876500715 279.3436862161409 L -12.70509831248421 326.335575687742 L 94 150.00000000000003 L -12.705098312484239 -26.33557568774191 L 187.97368876500713 20.656313783859133 L 322.70509831248415 -135.3169548885461 L 340.0263112349928 70.06120568822362 L 530 150 L 530 150" stroke-opacity="1" stroke-linecap="round" stroke-miterlimit="10" stroke-width="0.001"/><path fill="none" stroke="rgb(255,0,0)" paint-order="fill stroke markers" d=" M 350 150 L 294.7213595499958 197.02282018339787 L 267.0820393249937 264.12678195541844 L 205.27864045000422 226.0845213036123 L 132.91796067500633 220.53423027509677 L 150 150 L 132.9179606750063 79.46576972490324 L 205.2786404500042 73.91547869638772 L 267.0820393249937 35.87321804458156 L 294.7213595499958 102.97717981660213 L 350 150 L 350 150" stroke-opacity="1" stroke-linecap="round" stroke-miterlimit="10" stroke-width="0.001"/><path fill="none" stroke="rgb(255,0,0)" paint-order="fill stroke markers" d=" M 280 150 L 266.40576474687265 176.45033635316128 L 245.45084971874738 197.55282581475768 L 216.09423525312738 192.7975432332819 L 189.54915028125265 179.38926261462365 L 185 150 L 189.54915028125262 120.61073738537635 L 216.09423525312735 107.20245676671809 L 245.45084971874735 102.44717418524232 L 266.40576474687265 123.5496636468387 L 280 150 L 280 150" stroke-opacity="1" stroke-linecap="round" stroke-miterlimit="10" stroke-width="0.001"/><path fill="none" stroke="rgb(255,0,0)" paint-order="fill stroke markers" d=" M 530 150 L 351.3525491562421 238.16778784387097 L 322.7050983124842 435.31695488854604 L 183.6474508437579 292.65847744427305 L -12.70509831248421 326.335575687742 L 80 150.00000000000003 L -12.705098312484239 -26.33557568774191 L 183.64745084375787 7.341522555726982 L 322.70509831248415 -135.3169548885461 L 351.3525491562421 61.832212156129 L 530 150 L 530 150" stroke-opacity="1" stroke-linecap="round" stroke-miterlimit="10" stroke-width="0.001"/><path fill="none" stroke="rgb(255,0,0)" paint-order="fill stroke markers" d=" M 350 150 L 300.3844785106204 201.13731694944516 L 267.0820393249937 264.12678195541844 L 203.11552148937957 232.74191691767837 L 132.91796067500633 220.53423027509677 L 143 150 L 132.9179606750063 79.46576972490324 L 203.11552148937957 67.25808308232165 L 267.0820393249937 35.87321804458156 L 300.3844785106204 98.86268305055482 L 350 150 L 350 150" stroke-opacity="1" stroke-linecap="round" stroke-miterlimit="10" stroke-width="0.001"/><path fill="none" stroke="rgb(255,0,0)" paint-order="fill stroke markers" d=" M 280 150 L 269.23732422718496 178.50758473618495 L 245.45084971874738 197.55282581475768 L 215.01267577281504 196.12624104031494 L 189.54915028125265 179.38926261462365 L 181.5 150 L 189.54915028125262 120.61073738537635 L 215.01267577281504 103.87375895968506 L 245.45084971874735 102.44717418524232 L 269.23732422718496 121.49241526381505 L 280 150 L 280 150" stroke-opacity="1" stroke-linecap="round" stroke-miterlimit="10" stroke-width="0.001"/><path fill="none" stroke="rgb(255,0,0)" paint-order="fill stroke markers" d=" M 530 150 L 362.6787870774914 246.3967813759656 L 322.7050983124842 435.31695488854604 L 179.32121292250864 305.9732686724052 L -12.70509831248421 326.335575687742 L 66 150.00000000000003 L -12.705098312484239 -26.33557568774191 L 179.3212129225086 -5.973268672405169 L 322.70509831248415 -135.3169548885461 L 362.6787870774914 53.60321862403437 L 530 150 L 530 150" stroke-opacity="1" stroke-linecap="round" stroke-miterlimit="10" stroke-width="0.001"/><path fill="none" stroke="rgb(255,0,0)" paint-order="fill stroke markers" d=" M 350 150 L 306.04759747124507 205.25181371549246 L 267.0820393249937 264.12678195541844 L 200.95240252875496 239.39931253174444 L 132.91796067500633 220.53423027509677 L 136 150 L 132.9179606750063 79.46576972490324 L 200.95240252875493 60.60068746825557 L 267.0820393249937 35.87321804458156 L 306.04759747124507 94.74818628450751 L 350 150 L 350 150" stroke-opacity="1" stroke-linecap="round" stroke-miterlimit="10" stroke-width="0.001"/><path fill="none" stroke="rgb(255,0,0)" paint-order="fill stroke markers" d=" M 280 150 L 272.06888370749726 180.5648331192086 L 245.45084971874738 197.55282581475768 L 213.93111629250274 199.454938847348 L 189.54915028125265 179.38926261462365 L 178 150 L 189.54915028125262 120.61073738537635 L 213.93111629250274 100.54506115265201 L 245.45084971874735 102.44717418524232 L 272.06888370749726 119.43516688079139 L 280 150 L 280 150" stroke-opacity="1" stroke-linecap="round" stroke-miterlimit="10" stroke-width="0.001"/><path fill="none" stroke="rgb(255,0,0)" paint-order="fill stroke markers" d=" M 530 150 L 374.0050249987406 254.62577490806024 L 322.7050983124842 435.31695488854604 L 174.99497500125938 319.28805990053735 L -12.70509831248421 326.335575687742 L 52 150.00000000000003 L -12.705098312484239 -26.33557568774191 L 174.99497500125932 -19.28805990053732 L 322.70509831248415 -135.3169548885461 L 374.0050249987406 45.374225091939735 L 530 150 L 530 150" stroke-opacity="1" stroke-linecap="round" stroke-miterlimit="10" stroke-width="0.001"/><path fill="none" stroke="rgb(255,0,0)" paint-order="fill stroke markers" d=" M 350 150 L 311.7107164318697 209.36631048153978 L 267.0820393249937 264.12678195541844 L 198.78928356813032 246.05670814581052 L 132.91796067500633 220.53423027509677 L 129 150 L 132.9179606750063 79.46576972490324 L 198.7892835681303 53.943291854189496 L 267.0820393249937 35.87321804458156 L 311.7107164318697 90.63368951846019 L 350 150 L 350 150" stroke-opacity="1" stroke-linecap="round" stroke-miterlimit="10" stroke-width="0.001"/><path fill="none" stroke="rgb(255,0,0)" paint-order="fill stroke markers" d=" M 280 150 L 274.90044318780957 182.62208150223228 L 245.45084971874738 197.55282581475768 L 212.84955681219043 202.78363665438104 L 189.54915028125265 179.38926261462365 L 174.5 150 L 189.54915028125262 120.61073738537635 L 212.8495568121904 97.21636334561899 L 245.45084971874735 102.44717418524232 L 274.90044318780957 117.37791849776772 L 280 150 L 280 150" stroke-opacity="1" stroke-linecap="round" stroke-miterlimit="10" stroke-width="0.001"/><path fill="none" stroke="rgb(255,0,0)" paint-order="fill stroke markers" d=" M 530 150 L 385.3312629199899 262.8547684401548 L 322.7050983124842 435.31695488854604 L 170.66873708001012 332.6028511286695 L -12.70509831248421 326.335575687742 L 38 150.00000000000003 L -12.705098312484239 -26.33557568774191 L 170.66873708001006 -32.60285112866947 L 322.70509831248415 -135.3169548885461 L 385.33126291998985 37.145231559845115 L 530 150 L 530 150" stroke-opacity="1" stroke-linecap="round" stroke-miterlimit="10" stroke-width="0.001"/><path fill="none" stroke="rgb(255,0,0)" paint-order="fill stroke markers" d=" M 350 150 L 317.37383539249436 213.4808072475871 L 267.0820393249937 264.12678195541844 L 196.6261646075057 252.7141037598766 L 132.91796067500633 220.53423027509677 L 122 150 L 132.9179606750063 79.46576972490324 L 196.62616460750567 47.28589624012342 L 267.0820393249937 35.87321804458156 L 317.3738353924943 86.51919275241288 L 350 150 L 350 150" stroke-opacity="1" stroke-linecap="round" stroke-miterlimit="10" stroke-width="0.001"/><path fill="none" stroke="rgb(255,0,0)" paint-order="fill stroke markers" d=" M 280 150 L 277.7320026681219 184.67932988525592 L 245.45084971874738 197.55282581475768 L 211.76799733187812 206.11233446141406 L 189.54915028125265 179.38926261462365 L 171 150 L 189.54915028125262 120.61073738537635 L 211.7679973318781 93.88766553858594 L 245.45084971874735 102.44717418524232 L 277.7320026681219 115.32067011474408 L 280 150 L 280 150" stroke-opacity="1" stroke-linecap="round" stroke-miterlimit="10" stroke-width="0.001"/><path fill="none" stroke="rgb(255,0,0)" paint-order="fill stroke markers" d=" M 530 150 L 396.6575008412392 271.0837619722495 L 322.7050983124842 435.31695488854604 L 166.34249915876086 345.91764235680165 L -12.70509831248421 326.335575687742 L 24 150.00000000000003 L -12.705098312484239 -26.33557568774191 L 166.3424991587608 -45.91764235680162 L 322.70509831248415 -135.3169548885461 L 396.65750084123914 28.916238027750495 L 530 150 L 530 150" stroke-opacity="1" stroke-linecap="round" stroke-miterlimit="10" stroke-width="0.001"/><path fill="none" stroke="rgb(255,0,0)" paint-order="fill stroke markers" d=" M 350 150 L 323.036954353119 217.5953040136344 L 267.0820393249937 264.12678195541844 L 194.46304564688106 259.3714993739427 L 132.91796067500633 220.53423027509677 L 115 150 L 132.9179606750063 79.46576972490324 L 194.46304564688103 40.628500626057345 L 267.0820393249937 35.87321804458156 L 323.036954353119 82.40469598636557 L 350 150 L 350 150" stroke-opacity="1" stroke-linecap="round" stroke-miterlimit="10" stroke-width="0.001"/><path fill="none" stroke="rgb(255,0,0)" paint-order="fill stroke markers" d=" M 280 150 L 280.56356214843424 186.73657826827957 L 245.45084971874738 197.55282581475768 L 210.68643785156578 209.4410322684471 L 189.54915028125265 179.38926261462365 L 167.5 150 L 189.54915028125262 120.61073738537635 L 210.68643785156578 90.55896773155291 L 245.45084971874735 102.44717418524232 L 280.5635621484342 113.26342173172041 L 280 150 L 280 150" stroke-opacity="1" stroke-linecap="round" stroke-miterlimit="10" stroke-width="0.001"/><path fill="none" stroke="rgb(255,0,0)" paint-order="fill stroke markers" d=" M 530 150 L 407.98373876248843 279.31275550434407 L 322.7050983124842 435.31695488854604 L 162.01626123751157 359.2324335849338 L -12.70509831248421 326.335575687742 L 10 150.00000000000003 L -12.705098312484239 -26.33557568774191 L 162.01626123751154 -59.23243358493377 L 322.70509831248415 -135.3169548885461 L 407.98373876248843 20.687244495655875 L 530 150 L 530 150" stroke-opacity="1" stroke-linecap="round" stroke-miterlimit="10" stroke-width="0.001"/><path fill="none" stroke="rgb(255,0,0)" paint-order="fill stroke markers" d=" M 350 150 L 328.7000733137436 221.70980077968173 L 267.0820393249937 264.12678195541844 L 192.2999266862564 266.02889498800874 L 132.91796067500633 220.53423027509677 L 108 150.00000000000003 L 132.9179606750063 79.46576972490324 L 192.2999266862564 33.97110501199127 L 267.0820393249937 35.87321804458156 L 328.7000733137436 78.29019922031824 L 350 150 L 350 150" stroke-opacity="1" stroke-linecap="round" stroke-miterlimit="10" stroke-width="0.001"/><path fill="none" stroke="rgb(255,0,0)" paint-order="fill stroke markers" d=" M 280 150 L 283.39512162874655 188.79382665130322 L 245.45084971874738 197.55282581475768 L 209.60487837125348 212.76973007548014 L 189.54915028125265 179.38926261462365 L 164 150 L 189.54915028125262 120.61073738537635 L 209.60487837125345 87.23026992451986 L 245.45084971874735 102.44717418524232 L 283.39512162874655 111.20617334869675 L 280 150 L 280 150" stroke-opacity="1" stroke-linecap="round" stroke-miterlimit="10" stroke-width="0.001"/><path fill="none" stroke="rgb(255,0,0)" paint-order="fill stroke markers" d=" M 530 150 L 419.3099766837377 287.5417490364387 L 322.7050983124842 435.31695488854604 L 157.69002331626234 372.54722481306595 L -12.70509831248421 326.335575687742 L -4 150.00000000000003 L -12.705098312484239 -26.33557568774191 L 157.69002331626228 -72.54722481306592 L 322.70509831248415 -135.3169548885461 L 419.30997668373766 12.458250963561227 L 530 150 L 530 150" stroke-opacity="1" stroke-linecap="round" stroke-miterlimit="10" stroke-width="0.001"/><path fill="none" stroke="rgb(255,0,0)" paint-order="fill stroke markers" d=" M 350 150 L 334.3631922743682 225.82429754572905 L 267.0820393249937 264.12678195541844 L 190.1368077256318 272.6862906020748 L 132.91796067500633 220.53423027509677 L 101 150.00000000000003 L 132.9179606750063 79.46576972490324 L 190.13680772563177 27.313709397925194 L 267.0820393249937 35.87321804458156 L 334.3631922743682 74.17570245427093 L 350 150 L 350 150" stroke-opacity="1" stroke-linecap="round" stroke-miterlimit="10" stroke-width="0.001"/><path fill="none" stroke="rgb(255,0,0)" paint-order="fill stroke markers" d=" M 280 150 L 286.22668110905886 190.85107503432687 L 245.45084971874738 197.55282581475768 L 208.52331889094117 216.0984278825132 L 189.54915028125265 179.38926261462365 L 160.5 150 L 189.54915028125262 120.61073738537635 L 208.52331889094114 83.90157211748684 L 245.45084971874735 102.44717418524232 L 286.22668110905886 109.1489249656731 L 280 150 L 280 150" stroke-opacity="1" stroke-linecap="round" stroke-miterlimit="10" stroke-width="0.001"/><path fill="none" stroke="rgb(255,0,0)" paint-order="fill stroke markers" d=" M 530 150 L 430.636214604987 295.77074256853336 L 322.7050983124842 435.31695488854604 L 153.36378539501305 385.8620160411981 L -12.70509831248421 326.335575687742 L -18 150.00000000000003 L -12.705098312484239 -26.33557568774191 L 153.363785395013 -85.86201604119807 L 322.70509831248415 -135.3169548885461 L 430.63621460498695 4.229257431466607 L 530 150 L 530 150" stroke-opacity="1" stroke-linecap="round" stroke-miterlimit="10" stroke-width="0.001"/><path fill="none" stroke="rgb(255,0,0)" paint-order="fill stroke markers" d=" M 350 150 L 340.0263112349928 229.93879431177635 L 267.0820393249937 264.12678195541844 L 187.97368876500715 279.3436862161409 L 132.91796067500633 220.53423027509677 L 94 150.00000000000003 L 132.9179606750063 79.46576972490324 L 187.97368876500713 20.656313783859133 L 267.0820393249937 35.87321804458156 L 340.0263112349928 70.06120568822362 L 350 150 L 350 150" stroke-opacity="1" stroke-linecap="round" stroke-miterlimit="10" stroke-width="0.001"/><path fill="none" stroke="rgb(255,0,0)" paint-order="fill stroke markers" d=" M 280 150 L 289.05824058937117 192.90832341735054 L 245.45084971874738 197.55282581475768 L 207.44175941062883 219.42712568954622 L 189.54915028125265 179.38926261462365 L 157 150 L 189.54915028125262 120.61073738537635 L 207.44175941062883 80.5728743104538 L 245.45084971874735 102.44717418524232 L 289.05824058937117 107.09167658264944 L 280 150 L 280 150" stroke-opacity="1" stroke-linecap="round" stroke-miterlimit="10" stroke-width="0.001"/><path fill="none" stroke="rgb(255,0,0)" paint-order="fill stroke markers" d=" M 530 150 L 441.96245252623623 303.99973610062796 L 322.7050983124842 435.31695488854604 L 149.0375474737638 399.17680726933025 L -12.70509831248421 326.335575687742 L -32 150.00000000000003 L -12.705098312484239 -26.33557568774191 L 149.03754747376374 -99.17680726933023 L 322.70509831248415 -135.3169548885461 L 441.96245252623623 -3.999736100628013 L 530 150 L 530 150" stroke-opacity="1" stroke-linecap="round" stroke-miterlimit="10" stroke-width="0.001"/><path fill="none" stroke="rgb(255,0,0)" paint-order="fill stroke markers" d=" M 350 150 L 345.6894301956175 234.05329107782364 L 267.0820393249937 264.12678195541844 L 185.81056980438254 286.001081830207 L 132.91796067500633 220.53423027509677 L 87 150.00000000000003 L 132.9179606750063 79.46576972490324 L 185.8105698043825 13.998918169793058 L 267.0820393249937 35.87321804458156 L 345.6894301956175 65.94670892217631 L 350 150 L 350 150" stroke-opacity="1" stroke-linecap="round" stroke-miterlimit="10" stroke-width="0.001"/><path fill="none" stroke="rgb(255,0,0)" paint-order="fill stroke markers" d=" M 280 150 L 291.8898000696835 194.9655718003742 L 245.45084971874738 197.55282581475768 L 206.36019993031653 222.75582349657924 L 189.54915028125265 179.38926261462365 L 153.5 150 L 189.54915028125262 120.61073738537635 L 206.36019993031653 77.24417650342076 L 245.45084971874735 102.44717418524232 L 291.8898000696835 105.03442819962578 L 280 150 L 280 150" stroke-opacity="1" stroke-linecap="round" stroke-miterlimit="10" stroke-width="0.001"/><path fill="none" stroke="rgb(255,0,0)" paint-order="fill stroke markers" d=" M 530 150 L 453.28869044748546 312.22872963272255 L 322.7050983124842 435.31695488854604 L 144.71130955251454 412.4915984974624 L -12.70509831248421 326.335575687742 L -46 150.00000000000003 L -12.705098312484239 -26.33557568774191 L 144.71130955251448 -112.49159849746235 L 322.70509831248415 -135.3169548885461 L 453.28869044748546 -12.228729632722661 L 530 150 L 530 150" stroke-opacity="1" stroke-linecap="round" stroke-miterlimit="10" stroke-width="0.001"/><path fill="none" stroke="rgb(255,0,0)" paint-order="fill stroke markers" d=" M 350 150 L 351.3525491562421 238.16778784387097 L 267.0820393249937 264.12678195541844 L 183.6474508437579 292.65847744427305 L 132.91796067500633 220.53423027509677 L 80 150.00000000000003 L 132.9179606750063 79.46576972490324 L 183.64745084375787 7.341522555726982 L 267.0820393249937 35.87321804458156 L 351.3525491562421 61.832212156129 L 350 150 L 350 150" stroke-opacity="1" stroke-linecap="round" stroke-miterlimit="10" stroke-width="0.001"/><path fill="none" stroke="rgb(255,0,0)" paint-order="fill stroke markers" d=" M 280 150 L 294.7213595499958 197.02282018339787 L 245.45084971874738 197.55282581475768 L 205.27864045000422 226.0845213036123 L 189.54915028125265 179.38926261462365 L 150 150 L 189.54915028125262 120.61073738537635 L 205.2786404500042 73.91547869638772 L 245.45084971874735 102.44717418524232 L 294.7213595499958 102.97717981660213 L 280 150 L 280 150" stroke-opacity="1" stroke-linecap="round" stroke-miterlimit="10" stroke-width="0.001"/><path fill="none" stroke="rgb(255,0,0)" paint-order="fill stroke markers" d=" M 530 150 L 464.61492836873475 320.4577231648172 L 322.7050983124842 435.31695488854604 L 140.38507163126528 425.80638972559456 L -12.70509831248421 326.335575687742 L -60 150.00000000000003 L -12.705098312484239 -26.33557568774191 L 140.3850716312652 -125.8063897255945 L 322.70509831248415 -135.3169548885461 L 464.6149283687347 -20.45772316481728 L 530 150 L 530 150" stroke-opacity="1" stroke-linecap="round" stroke-miterlimit="10" stroke-width="0.001"/><path fill="none" stroke="rgb(255,0,0)" paint-order="fill stroke markers" d=" M 350 150 L 357.0156681168668 242.2822846099183 L 267.0820393249937 264.12678195541844 L 181.48433188313328 299.3158730583391 L 132.91796067500633 220.53423027509677 L 73 150.00000000000003 L 132.9179606750063 79.46576972490324 L 181.48433188313322 0.6841269416609066 L 267.0820393249937 35.87321804458156 L 357.0156681168667 57.71771539008168 L 350 150 L 350 150" stroke-opacity="1" stroke-linecap="round" stroke-miterlimit="10" stroke-width="0.001"/><path fill="none" stroke="rgb(255,0,0)" paint-order="fill stroke markers" d=" M 280 150 L 297.5529190303081 199.08006856642152 L 245.45084971874738 197.55282581475768 L 204.1970809696919 229.41321911064534 L 189.54915028125265 179.38926261462365 L 146.5 150 L 189.54915028125262 120.61073738537635 L 204.19708096969188 70.58678088935469 L 245.45084971874735 102.44717418524232 L 297.5529190303081 100.91993143357848 L 280 150 L 280 150" stroke-opacity="1" stroke-linecap="round" stroke-miterlimit="10" stroke-width="0.001"/><path fill="none" stroke="rgb(255,0,0)" paint-order="fill stroke markers" d=" M 530 150 L 475.94116628998404 328.68671669691184 L 322.7050983124842 435.31695488854604 L 136.05883371001602 439.1211809537267 L -12.70509831248421 326.335575687742 L -74 150.00000000000003 L -12.705098312484239 -26.33557568774191 L 136.05883371001596 -139.12118095372665 L 322.70509831248415 -135.3169548885461 L 475.941166289984 -28.6867166969119 L 530 150 L 530 150" stroke-opacity="1" stroke-linecap="round" stroke-miterlimit="10" stroke-width="0.001"/><path fill="none" stroke="rgb(255,0,0)" paint-order="fill stroke markers" d=" M 350 150 L 362.6787870774914 246.3967813759656 L 267.0820393249937 264.12678195541844 L 179.32121292250864 305.9732686724052 L 132.91796067500633 220.53423027509677 L 66 150.00000000000003 L 132.9179606750063 79.46576972490324 L 179.3212129225086 -5.973268672405169 L 267.0820393249937 35.87321804458156 L 362.6787870774914 53.60321862403437 L 350 150 L 350 150" stroke-opacity="1" stroke-linecap="round" stroke-miterlimit="10" stroke-width="0.001"/><path fill="none" stroke="rgb(255,0,0)" paint-order="fill stroke markers" d=" M 280 150 L 300.3844785106204 201.13731694944516 L 245.45084971874738 197.55282581475768 L 203.11552148937957 232.74191691767837 L 189.54915028125265 179.38926261462365 L 143 150 L 189.54915028125262 120.61073738537635 L 203.11552148937957 67.25808308232165 L 245.45084971874735 102.44717418524232 L 300.3844785106204 98.86268305055482 L 280 150 L 280 150" stroke-opacity="1" stroke-linecap="round" stroke-miterlimit="10" stroke-width="0.001"/><path fill="none" stroke="rgb(255,0,0)" paint-order="fill stroke markers" d=" M 530 150 L 487.26740421123327 336.91571022900644 L 322.7050983124842 435.31695488854604 L 131.73259578876673 452.43597218185886 L -12.70509831248421 326.335575687742 L -88 150.00000000000003 L -12.705098312484239 -26.33557568774191 L 131.73259578876667 -152.4359721818588 L 322.70509831248415 -135.3169548885461 L 487.26740421123327 -36.91571022900652 L 530 150 L 530 150" stroke-opacity="1" stroke-linecap="round" stroke-miterlimit="10" stroke-width="0.001"/><path fill="none" stroke="rgb(255,0,0)" paint-order="fill stroke markers" d=" M 350 150 L 368.341906038116 250.5112781420129 L 267.0820393249937 264.12678195541844 L 177.158093961884 312.6306642864713 L 132.91796067500633 220.53423027509677 L 59 150.00000000000003 L 132.9179606750063 79.46576972490324 L 177.15809396188396 -12.630664286471244 L 267.0820393249937 35.87321804458156 L 368.341906038116 49.48872185798706 L 350 150 L 350 150" stroke-opacity="1" stroke-linecap="round" stroke-miterlimit="10" stroke-width="0.001"/><path fill="none" stroke="rgb(255,0,0)" paint-order="fill stroke markers" d=" M 280 150 L 303.21603799093276 203.1945653324688 L 245.45084971874738 197.55282581475768 L 202.03396200906727 236.0706147247114 L 189.54915028125265 179.38926261462365 L 139.5 150 L 189.54915028125262 120.61073738537635 L 202.03396200906724 63.92938527528861 L 245.45084971874735 102.44717418524232 L 303.2160379909327 96.80543466753116 L 280 150 L 280 150" stroke-opacity="1" stroke-linecap="round" stroke-miterlimit="10" stroke-width="0.001"/><path fill="none" stroke="rgb(255,0,0)" paint-order="fill stroke markers" d=" M 530 150 L 498.59364213248256 345.1447037611011 L 322.7050983124842 435.31695488854604 L 127.40635786751749 465.750763409991 L -12.70509831248421 326.335575687742 L -102 150.00000000000003 L -12.705098312484239 -26.33557568774191 L 127.40635786751741 -165.75076340999095 L 322.70509831248415 -135.3169548885461 L 498.5936421324825 -45.14470376110114 L 530 150 L 530 150" stroke-opacity="1" stroke-linecap="round" stroke-miterlimit="10" stroke-width="0.001"/><path fill="none" stroke="rgb(255,0,0)" paint-order="fill stroke markers" d=" M 350 150 L 374.0050249987406 254.62577490806024 L 267.0820393249937 264.12678195541844 L 174.99497500125938 319.28805990053735 L 132.91796067500633 220.53423027509677 L 52 150.00000000000003 L 132.9179606750063 79.46576972490324 L 174.99497500125932 -19.28805990053732 L 267.0820393249937 35.87321804458156 L 374.0050249987406 45.374225091939735 L 350 150 L 350 150" stroke-opacity="1" stroke-linecap="round" stroke-miterlimit="10" stroke-width="0.001"/><path fill="none" stroke="rgb(255,0,0)" paint-order="fill stroke markers" d=" M 280 150 L 306.04759747124507 205.25181371549246 L 245.45084971874738 197.55282581475768 L 200.95240252875496 239.39931253174444 L 189.54915028125265 179.38926261462365 L 136 150 L 189.54915028125262 120.61073738537635 L 200.95240252875493 60.60068746825557 L 245.45084971874735 102.44717418524232 L 306.04759747124507 94.74818628450751 L 280 150 L 280 150" stroke-opacity="1" stroke-linecap="round" stroke-miterlimit="10" stroke-width="0.001"/><path fill="none" stroke="rgb(255,0,0)" paint-order="fill stroke markers" d=" M 530 150 L 509.91988005373184 353.37369729319573 L 322.7050983124842 435.31695488854604 L 123.08011994626823 479.06555463812316 L -12.70509831248421 326.335575687742 L -116 150.00000000000003 L -12.705098312484239 -26.33557568774191 L 123.08011994626814 -179.0655546381231 L 322.70509831248415 -135.3169548885461 L 509.9198800537318 -53.37369729319579 L 530 150 L 530 150" stroke-opacity="1" stroke-linecap="round" stroke-miterlimit="10" stroke-width="0.001"/><path fill="none" stroke="rgb(255,0,0)" paint-order="fill stroke markers" d=" M 350 150 L 379.66814395936524 258.74027167410753 L 267.0820393249937 264.12678195541844 L 172.83185604063473 325.9454555146034 L 132.91796067500633 220.53423027509677 L 45 150.00000000000003 L 132.9179606750063 79.46576972490324 L 172.8318560406347 -25.945455514603395 L 267.0820393249937 35.87321804458156 L 379.66814395936524 41.259728325892425 L 350 150 L 350 150" stroke-opacity="1" stroke-linecap="round" stroke-miterlimit="10" stroke-width="0.001"/><path fill="none" stroke="rgb(255,0,0)" paint-order="fill stroke markers" d=" M 280 150 L 308.8791569515574 207.30906209851614 L 245.45084971874738 197.55282581475768 L 199.87084304844262 242.7280103387775 L 189.54915028125265 179.38926261462365 L 132.5 150 L 189.54915028125262 120.61073738537635 L 199.87084304844262 57.271989661222534 L 245.45084971874735 102.44717418524232 L 308.8791569515574 92.69093790148385 L 280 150 L 280 150" stroke-opacity="1" stroke-linecap="round" stroke-miterlimit="10" stroke-width="0.001"/><path fill="none" stroke="rgb(255,0,0)" paint-order="fill stroke markers" d=" M 530 150 L 521.2461179749811 361.6026908252903 L 322.7050983124842 435.31695488854604 L 118.75388202501895 492.3803458662553 L -12.70509831248421 326.335575687742 L -130 150.00000000000006 L -12.705098312484239 -26.33557568774191 L 118.75388202501888 -192.38034586625525 L 322.70509831248415 -135.3169548885461 L 521.246117974981 -61.60269082529041 L 530 150 L 530 150" stroke-opacity="1" stroke-linecap="round" stroke-miterlimit="10" stroke-width="0.001"/><path fill="none" stroke="rgb(255,0,0)" paint-order="fill stroke markers" d=" M 350 150 L 385.3312629199899 262.8547684401548 L 267.0820393249937 264.12678195541844 L 170.66873708001012 332.6028511286695 L 132.91796067500633 220.53423027509677 L 38 150.00000000000003 L 132.9179606750063 79.46576972490324 L 170.66873708001006 -32.60285112866947 L 267.0820393249937 35.87321804458156 L 385.33126291998985 37.145231559845115 L 350 150 L 350 150" stroke-opacity="1" stroke-linecap="round" stroke-miterlimit="10" stroke-width="0.001"/><path fill="none" stroke="rgb(255,0,0)" paint-order="fill stroke markers" d=" M 280 150 L 311.7107164318697 209.36631048153978 L 245.45084971874738 197.55282581475768 L 198.78928356813032 246.05670814581052 L 189.54915028125265 179.38926261462365 L 129 150 L 189.54915028125262 120.61073738537635 L 198.7892835681303 53.943291854189496 L 245.45084971874735 102.44717418524232 L 311.7107164318697 90.63368951846019 L 280 150 L 280 150" stroke-opacity="1" stroke-linecap="round" stroke-miterlimit="10" stroke-width="0.001"/><path fill="none" stroke="rgb(255,0,0)" paint-order="fill stroke markers" d=" M 530 150 L 532.5723558962304 369.8316843573849 L 322.7050983124842 435.31695488854604 L 114.4276441037697 505.69513709438746 L -12.70509831248421 326.335575687742 L -144 150.00000000000006 L -12.705098312484239 -26.33557568774191 L 114.42764410376961 -205.6951370943874 L 322.70509831248415 -135.3169548885461 L 532.5723558962303 -69.83168435738503 L 530 150 L 530 150" stroke-opacity="1" stroke-linecap="round" stroke-miterlimit="10" stroke-width="0.001"/><path fill="none" stroke="rgb(255,0,0)" paint-order="fill stroke markers" d=" M 350 150 L 390.9943818806146 266.9692652062022 L 267.0820393249937 264.12678195541844 L 168.50561811938547 339.2602467427356 L 132.91796067500633 220.53423027509677 L 31 150.00000000000003 L 132.9179606750063 79.46576972490324 L 168.50561811938545 -39.260246742735546 L 267.0820393249937 35.87321804458156 L 390.9943818806145 33.030734793797805 L 350 150 L 350 150" stroke-opacity="1" stroke-linecap="round" stroke-miterlimit="10" stroke-width="0.001"/><path fill="none" stroke="rgb(255,0,0)" paint-order="fill stroke markers" d=" M 280 150 L 314.542275912182 211.42355886456343 L 245.45084971874738 197.55282581475768 L 197.707724087818 249.38540595284354 L 189.54915028125265 179.38926261462365 L 125.5 150 L 189.54915028125262 120.61073738537635 L 197.70772408781798 50.61459404715646 L 245.45084971874735 102.44717418524232 L 314.542275912182 88.57644113543654 L 280 150 L 280 150" stroke-opacity="1" stroke-linecap="round" stroke-miterlimit="10" stroke-width="0.001"/><path fill="none" stroke="rgb(255,0,0)" paint-order="fill stroke markers" d=" M 530 150 L 543.8985938174797 378.06067788947956 L 322.7050983124842 435.31695488854604 L 110.10140618252044 519.0099283225196 L -12.70509831248421 326.335575687742 L -158 150.00000000000006 L -12.705098312484239 -26.33557568774191 L 110.10140618252035 -219.00992832251956 L 322.70509831248415 -135.3169548885461 L 543.8985938174797 -78.06067788947968 L 530 150 L 530 150" stroke-opacity="1" stroke-linecap="round" stroke-miterlimit="10" stroke-width="0.001"/><path fill="none" stroke="rgb(255,0,0)" paint-order="fill stroke markers" d=" M 350 150 L 396.6575008412392 271.0837619722495 L 267.0820393249937 264.12678195541844 L 166.34249915876086 345.91764235680165 L 132.91796067500633 220.53423027509677 L 24 150.00000000000003 L 132.9179606750063 79.46576972490324 L 166.3424991587608 -45.91764235680162 L 267.0820393249937 35.87321804458156 L 396.65750084123914 28.916238027750495 L 350 150 L 350 150" stroke-opacity="1" stroke-linecap="round" stroke-miterlimit="10" stroke-width="0.001"/><path fill="none" stroke="rgb(255,0,0)" paint-order="fill stroke markers" d=" M 280 150 L 317.37383539249436 213.4808072475871 L 245.45084971874738 197.55282581475768 L 196.6261646075057 252.7141037598766 L 189.54915028125265 179.38926261462365 L 122 150 L 189.54915028125262 120.61073738537635 L 196.62616460750567 47.28589624012342 L 245.45084971874735 102.44717418524232 L 317.3738353924943 86.51919275241288 L 280 150 L 280 150" stroke-opacity="1" stroke-linecap="round" stroke-miterlimit="10" stroke-width="0.001"/><path fill="none" stroke="rgb(255,0,0)" paint-order="fill stroke markers" d=" M 530 150 L 555.2248317387289 386.2896714215742 L 322.7050983124842 435.31695488854604 L 105.77516826127118 532.3247195506517 L -12.70509831248421 326.335575687742 L -172 150.00000000000006 L -12.705098312484239 -26.33557568774191 L 105.77516826127108 -232.3247195506517 L 322.70509831248415 -135.3169548885461 L 555.2248317387289 -86.2896714215743 L 530 150 L 530 150" stroke-opacity="1" stroke-linecap="round" stroke-miterlimit="10" stroke-width="0.001"/><path fill="none" stroke="rgb(255,0,0)" paint-order="fill stroke markers" d=" M 350 150 L 402.3206198018638 275.1982587382968 L 267.0820393249937 264.12678195541844 L 164.17938019813622 352.5750379708677 L 132.91796067500633 220.53423027509677 L 17 150.00000000000003 L 132.9179606750063 79.46576972490324 L 164.1793801981362 -52.5750379708677 L 267.0820393249937 35.87321804458156 L 402.3206198018638 24.80174126170317 L 350 150 L 350 150" stroke-opacity="1" stroke-linecap="round" stroke-miterlimit="10" stroke-width="0.001"/><path fill="none" stroke="rgb(255,0,0)" paint-order="fill stroke markers" d=" M 280 150 L 320.20539487280666 215.53805563061076 L 245.45084971874738 197.55282581475768 L 195.54460512719336 256.04280156690965 L 189.54915028125265 179.38926261462365 L 118.5 150 L 189.54915028125262 120.61073738537635 L 195.54460512719334 43.95719843309038 L 245.45084971874735 102.44717418524232 L 320.2053948728066 84.46194436938922 L 280 150 L 280 150" stroke-opacity="1" stroke-linecap="round" stroke-miterlimit="10" stroke-width="0.001"/><path fill="none" stroke="rgb(255,0,0)" paint-order="fill stroke markers" d=" M 530 150 L 566.5510696599781 394.5186649536688 L 322.7050983124842 435.31695488854604 L 101.44893034002192 545.6395107787839 L -12.70509831248421 326.335575687742 L -186 150.00000000000006 L -12.705098312484239 -26.33557568774191 L 101.4489303400218 -245.63951077878386 L 322.70509831248415 -135.3169548885461 L 566.5510696599781 -94.51866495366892 L 530 150 L 530 150" stroke-opacity="1" stroke-linecap="round" stroke-miterlimit="10" stroke-width="0.001"/><path fill="none" stroke="rgb(255,0,0)" paint-order="fill stroke markers" d=" M 350 150 L 407.98373876248843 279.31275550434407 L 267.0820393249937 264.12678195541844 L 162.01626123751157 359.2324335849338 L 132.91796067500633 220.53423027509677 L 10 150.00000000000003 L 132.9179606750063 79.46576972490324 L 162.01626123751154 -59.23243358493377 L 267.0820393249937 35.87321804458156 L 407.98373876248843 20.687244495655875 L 350 150 L 350 150" stroke-opacity="1" stroke-linecap="round" stroke-miterlimit="10" stroke-width="0.001"/><path fill="none" stroke="rgb(255,0,0)" paint-order="fill stroke markers" d=" M 280 150 L 323.036954353119 217.5953040136344 L 245.45084971874738 197.55282581475768 L 194.46304564688106 259.3714993739427 L 189.54915028125265 179.38926261462365 L 115 150 L 189.54915028125262 120.61073738537635 L 194.46304564688103 40.628500626057345 L 245.45084971874735 102.44717418524232 L 323.036954353119 82.40469598636557 L 280 150 L 280 150" stroke-opacity="1" stroke-linecap="round" stroke-miterlimit="10" stroke-width="0.001"/><path fill="none" stroke="rgb(255,0,0)" paint-order="fill stroke markers" d=" M 530 150 L 577.8773075812273 402.74765848576345 L 322.7050983124842 435.31695488854604 L 97.12269241877263 558.9543020069161 L -12.70509831248421 326.335575687742 L -200 150.00000000000006 L -12.705098312484239 -26.33557568774191 L 97.12269241877254 -258.954302006916 L 322.70509831248415 -135.3169548885461 L 577.8773075812273 -102.74765848576354 L 530 150 L 530 150" stroke-opacity="1" stroke-linecap="round" stroke-miterlimit="10" stroke-width="0.001"/><path fill="none" stroke="rgb(255,0,0)" paint-order="fill stroke markers" d=" M 350 150 L 413.64685772311304 283.42725227039136 L 267.0820393249937 264.12678195541844 L 159.85314227688696 365.8898291989999 L 132.91796067500633 220.53423027509677 L 3 150.00000000000003 L 132.9179606750063 79.46576972490324 L 159.8531422768869 -65.88982919899985 L 267.0820393249937 35.87321804458156 L 413.64685772311304 16.57274772960855 L 350 150 L 350 150" stroke-opacity="1" stroke-linecap="round" stroke-miterlimit="10" stroke-width="0.001"/><path fill="none" stroke="rgb(255,0,0)" paint-order="fill stroke markers" d=" M 280 150 L 325.8685138334313 219.65255239665805 L 245.45084971874738 197.55282581475768 L 193.38148616656875 262.7001971809757 L 189.54915028125265 179.38926261462365 L 111.5 150.00000000000003 L 189.54915028125262 120.61073738537635 L 193.38148616656872 37.29980281902431 L 245.45084971874735 102.44717418524232 L 325.8685138334313 80.3474476033419 L 280 150 L 280 150" stroke-opacity="1" stroke-linecap="round" stroke-miterlimit="10" stroke-width="0.001"/><path fill="none" stroke="rgb(255,0,0)" paint-order="fill stroke markers" d=" M 530 150 L 589.2035455024767 410.9766520178581 L 322.7050983124842 435.31695488854604 L 92.79645449752337 572.2690932350482 L -12.70509831248421 326.335575687742 L -214 150.00000000000006 L -12.705098312484239 -26.33557568774191 L 92.79645449752329 -272.26909323504816 L 322.70509831248415 -135.3169548885461 L 589.2035455024766 -110.97665201785816 L 530 150 L 530 150" stroke-opacity="1" stroke-linecap="round" stroke-miterlimit="10" stroke-width="0.001"/><path fill="none" stroke="rgb(255,0,0)" paint-order="fill stroke markers" d=" M 350 150 L 419.3099766837377 287.5417490364387 L 267.0820393249937 264.12678195541844 L 157.69002331626234 372.54722481306595 L 132.91796067500633 220.53423027509677 L -4 150.00000000000003 L 132.9179606750063 79.46576972490324 L 157.69002331626228 -72.54722481306592 L 267.0820393249937 35.87321804458156 L 419.30997668373766 12.458250963561227 L 350 150 L 350 150" stroke-opacity="1" stroke-linecap="round" stroke-miterlimit="10" stroke-width="0.001"/><path fill="none" stroke="rgb(255,0,0)" paint-order="fill stroke markers" d=" M 280 150 L 328.7000733137436 221.70980077968173 L 245.45084971874738 197.55282581475768 L 192.2999266862564 266.02889498800874 L 189.54915028125265 179.38926261462365 L 108 150.00000000000003 L 189.54915028125262 120.61073738537635 L 192.2999266862564 33.97110501199127 L 245.45084971874735 102.44717418524232 L 328.7000733137436 78.29019922031824 L 280 150 L 280 150" stroke-opacity="1" stroke-linecap="round" stroke-miterlimit="10" stroke-width="0.001"/><path fill="none" stroke="rgb(255,0,0)" paint-order="fill stroke markers" d=" M 530 150 L 600.5297834237259 419.2056455499527 L 322.7050983124842 435.31695488854604 L 88.47021657627411 585.5838844631803 L -12.70509831248421 326.335575687742 L -228 150.00000000000006 L -12.705098312484239 -26.33557568774191 L 88.47021657627403 -285.5838844631803 L 322.70509831248415 -135.3169548885461 L 600.5297834237258 -119.2056455499528 L 530 150 L 530 150" stroke-opacity="1" stroke-linecap="round" stroke-miterlimit="10" stroke-width="0.001"/><path fill="none" stroke="rgb(255,0,0)" paint-order="fill stroke markers" d=" M 350 150 L 424.97309564436233 291.656245802486 L 267.0820393249937 264.12678195541844 L 155.5269043556377 379.204620427132 L 132.91796067500633 220.53423027509677 L -11 150.00000000000003 L 132.9179606750063 79.46576972490324 L 155.52690435563764 -79.204620427132 L 267.0820393249937 35.87321804458156 L 424.9730956443623 8.343754197513931 L 350 150 L 350 150" stroke-opacity="1" stroke-linecap="round" stroke-miterlimit="10" stroke-width="0.001"/><path fill="none" stroke="rgb(255,0,0)" paint-order="fill stroke markers" d=" M 280 150 L 331.5316327940559 223.76704916270538 L 245.45084971874738 197.55282581475768 L 191.2183672059441 269.3575927950418 L 189.54915028125265 179.38926261462365 L 104.5 150.00000000000003 L 189.54915028125262 120.61073738537635 L 191.21836720594408 30.642407204958232 L 245.45084971874735 102.44717418524232 L 331.5316327940559 76.2329508372946 L 280 150 L 280 150" stroke-opacity="1" stroke-linecap="round" stroke-miterlimit="10" stroke-width="0.001"/><path fill="none" stroke="rgb(255,0,0)" paint-order="fill stroke markers" d=" M 530 150 L 611.8560213449753 427.43463908204734 L 322.7050983124842 435.31695488854604 L 84.14397865502485 598.8986756913125 L -12.70509831248421 326.335575687742 L -242 150.00000000000006 L -12.705098312484239 -26.33557568774191 L 84.14397865502474 -298.89867569131246 L 322.70509831248415 -135.3169548885461 L 611.8560213449751 -127.4346390820474 L 530 150 L 530 150" stroke-opacity="1" stroke-linecap="round" stroke-miterlimit="10" stroke-width="0.001"/><path fill="none" stroke="rgb(255,0,0)" paint-order="fill stroke markers" d=" M 350 150 L 430.636214604987 295.77074256853336 L 267.0820393249937 264.12678195541844 L 153.36378539501305 385.8620160411981 L 132.91796067500633 220.53423027509677 L -18 150.00000000000003 L 132.9179606750063 79.46576972490324 L 153.363785395013 -85.86201604119807 L 267.0820393249937 35.87321804458156 L 430.63621460498695 4.229257431466607 L 350 150 L 350 150" stroke-opacity="1" stroke-linecap="round" stroke-miterlimit="10" stroke-width="0.001"/><path fill="none" stroke="rgb(255,0,0)" paint-order="fill stroke markers" d=" M 280 150 L 334.3631922743682 225.82429754572905 L 245.45084971874738 197.55282581475768 L 190.1368077256318 272.6862906020748 L 189.54915028125265 179.38926261462365 L 101 150.00000000000003 L 189.54915028125262 120.61073738537635 L 190.13680772563177 27.313709397925194 L 245.45084971874735 102.44717418524232 L 334.3631922743682 74.17570245427093 L 280 150 L 280 150" stroke-opacity="1" stroke-linecap="round" stroke-miterlimit="10" stroke-width="0.001"/><path fill="none" stroke="rgb(255,0,0)" paint-order="fill stroke markers" d=" M 530 150 L 623.1822592662245 435.66363261414193 L 322.7050983124842 435.31695488854604 L 79.8177407337756 612.2134669194447 L -12.70509831248421 326.335575687742 L -256 150.00000000000006 L -12.705098312484239 -26.33557568774191 L 79.81774073377548 -312.2134669194446 L 322.70509831248415 -135.3169548885461 L 623.1822592662245 -135.66363261414205 L 530 150 L 530 150" stroke-opacity="1" stroke-linecap="round" stroke-miterlimit="10" stroke-width="0.001"/><path fill="none" stroke="rgb(255,0,0)" paint-order="fill stroke markers" d=" M 350 150 L 436.2993335656116 299.88523933458066 L 267.0820393249937 264.12678195541844 L 151.20066643438844 392.5194116552642 L 132.91796067500633 220.53423027509677 L -25 150.00000000000003 L 132.9179606750063 79.46576972490324 L 151.20066643438838 -92.51941165526415 L 267.0820393249937 35.87321804458156 L 436.29933356561156 0.11476066541928276 L 350 150 L 350 150" stroke-opacity="1" stroke-linecap="round" stroke-miterlimit="10" stroke-width="0.001"/><path fill="none" stroke="rgb(255,0,0)" paint-order="fill stroke markers" d=" M 280 150 L 337.1947517546805 227.8815459287527 L 245.45084971874738 197.55282581475768 L 189.0552482453195 276.01498840910784 L 189.54915028125265 179.38926261462365 L 97.5 150.00000000000003 L 189.54915028125262 120.61073738537635 L 189.05524824531943 23.985011590892157 L 245.45084971874735 102.44717418524232 L 337.1947517546805 72.11845407124729 L 280 150 L 280 150" stroke-opacity="1" stroke-linecap="round" stroke-miterlimit="10" stroke-width="0.001"/><path fill="none" stroke="rgb(255,0,0)" paint-order="fill stroke markers" d=" M 530 150 L 634.5084971874737 443.8926261462366 L 322.7050983124842 435.31695488854604 L 75.49150281252633 625.5282581475768 L -12.70509831248421 326.335575687742 L -270 150.00000000000006 L -12.705098312484239 -26.33557568774191 L 75.49150281252622 -325.52825814757676 L 322.70509831248415 -135.3169548885461 L 634.5084971874737 -143.8926261462367 L 530 150 L 530 150" stroke-opacity="1" stroke-linecap="round" stroke-miterlimit="10" stroke-width="0.001"/><path fill="none" stroke="rgb(255,0,0)" paint-order="fill stroke markers" d=" M 350 150 L 441.96245252623623 303.99973610062796 L 267.0820393249937 264.12678195541844 L 149.0375474737638 399.17680726933025 L 132.91796067500633 220.53423027509677 L -32 150.00000000000003 L 132.9179606750063 79.46576972490324 L 149.03754747376374 -99.17680726933023 L 267.0820393249937 35.87321804458156 L 441.96245252623623 -3.999736100628013 L 350 150 L 350 150" stroke-opacity="1" stroke-linecap="round" stroke-miterlimit="10" stroke-width="0.001"/><path fill="none" stroke="rgb(255,0,0)" paint-order="fill stroke markers" d=" M 280 150 L 340.0263112349928 229.93879431177635 L 245.45084971874738 197.55282581475768 L 187.97368876500715 279.3436862161409 L 189.54915028125265 179.38926261462365 L 94 150.00000000000003 L 189.54915028125262 120.61073738537635 L 187.97368876500713 20.656313783859133 L 245.45084971874735 102.44717418524232 L 340.0263112349928 70.06120568822362 L 280 150 L 280 150" stroke-opacity="1" stroke-linecap="round" stroke-miterlimit="10" stroke-width="0.001"/><path fill="none" stroke="rgb(255,0,0)" paint-order="fill stroke markers" d=" M 530 150 L 645.834735108723 452.1216196783312 L 322.7050983124842 435.31695488854604 L 71.16526489127708 638.8430493757089 L -12.70509831248421 326.335575687742 L -284 150.00000000000006 L -12.705098312484239 -26.33557568774191 L 71.16526489127696 -338.8430493757089 L 322.70509831248415 -135.3169548885461 L 645.834735108723 -152.12161967833129 L 530 150 L 530 150" stroke-opacity="1" stroke-linecap="round" stroke-miterlimit="10" stroke-width="0.001"/><path fill="none" stroke="rgb(255,0,0)" paint-order="fill stroke markers" d=" M 350 150 L 447.62557148686085 308.11423286667525 L 267.0820393249937 264.12678195541844 L 146.87442851313915 405.8342028833963 L 132.91796067500633 220.53423027509677 L -39 150.00000000000003 L 132.9179606750063 79.46576972490324 L 146.8744285131391 -105.8342028833963 L 267.0820393249937 35.87321804458156 L 447.62557148686085 -8.114232866675337 L 350 150 L 350 150" stroke-opacity="1" stroke-linecap="round" stroke-miterlimit="10" stroke-width="0.001"/><path fill="none" stroke="rgb(255,0,0)" paint-order="fill stroke markers" d=" M 280 150 L 342.8578707153052 231.9960426948 L 245.45084971874738 197.55282581475768 L 186.89212928469485 282.67238402317395 L 189.54915028125265 179.38926261462365 L 90.5 150.00000000000003 L 189.54915028125262 120.61073738537635 L 186.89212928469482 17.32761597682608 L 245.45084971874735 102.44717418524232 L 342.8578707153051 68.00395730519996 L 280 150 L 280 150" stroke-opacity="1" stroke-linecap="round" stroke-miterlimit="10" stroke-width="0.001"/><path fill="none" stroke="rgb(255,0,0)" paint-order="fill stroke markers" d=" M 530 150 L 657.1609730299722 460.3506132104258 L 322.7050983124842 435.31695488854604 L 66.83902697002782 652.1578406038411 L -12.70509831248421 326.335575687742 L -298 150.00000000000006 L -12.705098312484239 -26.33557568774191 L 66.83902697002767 -352.15784060384107 L 322.70509831248415 -135.3169548885461 L 657.1609730299722 -160.35061321042593 L 530 150 L 530 150" stroke-opacity="1" stroke-linecap="round" stroke-miterlimit="10" stroke-width="0.001"/><path fill="none" stroke="rgb(255,0,0)" paint-order="fill stroke markers" d=" M 350 150 L 453.28869044748546 312.22872963272255 L 267.0820393249937 264.12678195541844 L 144.71130955251454 412.4915984974624 L 132.91796067500633 220.53423027509677 L -46 150.00000000000003 L 132.9179606750063 79.46576972490324 L 144.71130955251448 -112.49159849746235 L 267.0820393249937 35.87321804458156 L 453.28869044748546 -12.228729632722661 L 350 150 L 350 150" stroke-opacity="1" stroke-linecap="round" stroke-miterlimit="10" stroke-width="0.001"/><path fill="none" stroke="rgb(255,0,0)" paint-order="fill stroke markers" d=" M 280 150 L 345.6894301956175 234.05329107782364 L 245.45084971874738 197.55282581475768 L 185.81056980438254 286.001081830207 L 189.54915028125265 179.38926261462365 L 87 150.00000000000003 L 189.54915028125262 120.61073738537635 L 185.8105698043825 13.998918169793058 L 245.45084971874735 102.44717418524232 L 345.6894301956175 65.94670892217631 L 280 150 L 280 150" stroke-opacity="1" stroke-linecap="round" stroke-miterlimit="10" stroke-width="0.001"/><path fill="none" stroke="rgb(255,0,0)" paint-order="fill stroke markers" d=" M 530 150 L 668.4872109512215 468.57960674252047 L 322.7050983124842 435.31695488854604 L 62.51278904877853 665.4726318319733 L -12.70509831248421 326.335575687742 L -312 150.00000000000006 L -12.705098312484239 -26.33557568774191 L 62.512789048778416 -365.4726318319732 L 322.70509831248415 -135.3169548885461 L 668.4872109512214 -168.57960674252058 L 530 150 L 530 150" stroke-opacity="1" stroke-linecap="round" stroke-miterlimit="10" stroke-width="0.001"/><path fill="none" stroke="rgb(255,0,0)" paint-order="fill stroke markers" d=" M 350 150 L 458.95180940811014 316.3432263987699 L 267.0820393249937 264.12678195541844 L 142.54819059188992 419.1489941115285 L 132.91796067500633 220.53423027509677 L -53 150.00000000000003 L 132.9179606750063 79.46576972490324 L 142.54819059188983 -119.14899411152845 L 267.0820393249937 35.87321804458156 L 458.9518094081101 -16.343226398769957 L 350 150 L 350 150" stroke-opacity="1" stroke-linecap="round" stroke-miterlimit="10" stroke-width="0.001"/><path fill="none" stroke="rgb(255,0,0)" paint-order="fill stroke markers" d=" M 280 150 L 348.5209896759298 236.11053946084732 L 245.45084971874738 197.55282581475768 L 184.7290103240702 289.32977963724 L 189.54915028125265 179.38926261462365 L 83.5 150.00000000000003 L 189.54915028125262 120.61073738537635 L 184.72901032407017 10.670220362760006 L 245.45084971874735 102.44717418524232 L 348.5209896759298 63.88946053915265 L 280 150 L 280 150" stroke-opacity="1" stroke-linecap="round" stroke-miterlimit="10" stroke-width="0.001"/><path fill="none" stroke="rgb(255,0,0)" paint-order="fill stroke markers" d=" M 530 150 L 679.8134488724708 476.80860027461506 L 322.7050983124842 435.31695488854604 L 58.18655112752927 678.7874230601054 L -12.70509831248421 326.335575687742 L -326 150.00000000000006 L -12.705098312484239 -26.33557568774191 L 58.18655112752916 -378.7874230601053 L 322.70509831248415 -135.3169548885461 L 679.8134488724706 -176.80860027461517 L 530 150 L 530 150" stroke-opacity="1" stroke-linecap="round" stroke-miterlimit="10" stroke-width="0.001"/><path fill="none" stroke="rgb(255,0,0)" paint-order="fill stroke markers" d=" M 350 150 L 464.61492836873475 320.4577231648172 L 267.0820393249937 264.12678195541844 L 140.38507163126528 425.80638972559456 L 132.91796067500633 220.53423027509677 L -60 150.00000000000003 L 132.9179606750063 79.46576972490324 L 140.3850716312652 -125.8063897255945 L 267.0820393249937 35.87321804458156 L 464.6149283687347 -20.45772316481728 L 350 150 L 350 150" stroke-opacity="1" stroke-linecap="round" stroke-miterlimit="10" stroke-width="0.001"/><path fill="none" stroke="rgb(255,0,0)" paint-order="fill stroke markers" d=" M 280 150 L 351.3525491562421 238.16778784387097 L 245.45084971874738 197.55282581475768 L 183.6474508437579 292.65847744427305 L 189.54915028125265 179.38926261462365 L 80 150.00000000000003 L 189.54915028125262 120.61073738537635 L 183.64745084375787 7.341522555726982 L 245.45084971874735 102.44717418524232 L 351.3525491562421 61.832212156129 L 280 150 L 280 150" stroke-opacity="1" stroke-linecap="round" stroke-miterlimit="10" stroke-width="0.001"/><path fill="none" stroke="rgb(255,0,0)" paint-order="fill stroke markers" d=" M 530 150 L 691.1396867937201 485.0375938067097 L 322.7050983124842 435.31695488854604 L 53.86031320628001 692.1022142882375 L -12.70509831248421 326.335575687742 L -340 150.00000000000006 L -12.705098312484239 -26.33557568774191 L 53.8603132062799 -392.1022142882375 L 322.70509831248415 -135.3169548885461 L 691.13968679372 -185.03759380670982 L 530 150 L 530 150" stroke-opacity="1" stroke-linecap="round" stroke-miterlimit="10" stroke-width="0.001"/><path fill="none" stroke="rgb(255,0,0)" paint-order="fill stroke markers" d=" M 350 150 L 470.2780473293594 324.57221993086455 L 267.0820393249937 264.12678195541844 L 138.22195267064063 432.4637853396606 L 132.91796067500633 220.53423027509677 L -67 150.00000000000003 L 132.9179606750063 79.46576972490324 L 138.22195267064058 -132.4637853396606 L 267.0820393249937 35.87321804458156 L 470.27804732935937 -24.572219930864577 L 350 150 L 350 150" stroke-opacity="1" stroke-linecap="round" stroke-miterlimit="10" stroke-width="0.001"/><path fill="none" stroke="rgb(255,0,0)" paint-order="fill stroke markers" d=" M 280 150 L 354.1841086365544 240.22503622689464 L 245.45084971874738 197.55282581475768 L 182.5658913634456 295.9871752513061 L 189.54915028125265 179.38926261462365 L 76.5 150.00000000000003 L 189.54915028125262 120.61073738537635 L 182.56589136344556 4.01282474869393 L 245.45084971874735 102.44717418524232 L 354.1841086365544 59.77496377310534 L 280 150 L 280 150" stroke-opacity="1" stroke-linecap="round" stroke-miterlimit="10" stroke-width="0.001"/><path fill="none" stroke="rgb(255,0,0)" paint-order="fill stroke markers" d=" M 530 150 L 702.4659247149693 493.2665873388043 L 322.7050983124842 435.31695488854604 L 49.53407528503075 705.4170055163697 L -12.70509831248421 326.335575687742 L -354 150.00000000000009 L -12.705098312484239 -26.33557568774191 L 49.53407528503061 -405.4170055163696 L 322.70509831248415 -135.3169548885461 L 702.4659247149692 -193.26658733880447 L 530 150 L 530 150" stroke-opacity="1" stroke-linecap="round" stroke-miterlimit="10" stroke-width="0.001"/><path fill="none" stroke="rgb(255,0,0)" paint-order="fill stroke markers" d=" M 350 150 L 475.94116628998404 328.68671669691184 L 267.0820393249937 264.12678195541844 L 136.05883371001602 439.1211809537267 L 132.91796067500633 220.53423027509677 L -74 150.00000000000003 L 132.9179606750063 79.46576972490324 L 136.05883371001596 -139.12118095372665 L 267.0820393249937 35.87321804458156 L 475.941166289984 -28.6867166969119 L 350 150 L 350 150" stroke-opacity="1" stroke-linecap="round" stroke-miterlimit="10" stroke-width="0.001"/><path fill="none" stroke="rgb(255,0,0)" paint-order="fill stroke markers" d=" M 280 150 L 357.0156681168668 242.2822846099183 L 245.45084971874738 197.55282581475768 L 181.48433188313328 299.3158730583391 L 189.54915028125265 179.38926261462365 L 73 150.00000000000003 L 189.54915028125262 120.61073738537635 L 181.48433188313322 0.6841269416609066 L 245.45084971874735 102.44717418524232 L 357.0156681168667 57.71771539008168 L 280 150 L 280 150" stroke-opacity="1" stroke-linecap="round" stroke-miterlimit="10" stroke-width="0.001"/><path fill="none" stroke="rgb(255,0,0)" paint-order="fill stroke markers" d=" M 530 150 L 713.7921626362186 501.49558087089895 L 322.7050983124842 435.31695488854604 L 45.20783736378149 718.7317967445019 L -12.70509831248421 326.335575687742 L -368 150.00000000000009 L -12.705098312484239 -26.33557568774191 L 45.20783736378135 -418.7317967445018 L 322.70509831248415 -135.3169548885461 L 713.7921626362186 -201.49558087089906 L 530 150 L 530 150" stroke-opacity="1" stroke-linecap="round" stroke-miterlimit="10" stroke-width="0.001"/><path fill="none" stroke="rgb(255,0,0)" paint-order="fill stroke markers" d=" M 350 150 L 481.60428525060865 332.80121346295914 L 267.0820393249937 264.12678195541844 L 133.89571474939137 445.7785765677928 L 132.91796067500633 220.53423027509677 L -81 150.00000000000003 L 132.9179606750063 79.46576972490324 L 133.8957147493913 -145.77857656779275 L 267.0820393249937 35.87321804458156 L 481.60428525060865 -32.801213462959225 L 350 150 L 350 150" stroke-opacity="1" stroke-linecap="round" stroke-miterlimit="10" stroke-width="0.001"/><path fill="none" stroke="rgb(255,0,0)" paint-order="fill stroke markers" d=" M 280 150 L 359.8472275971791 244.33953299294194 L 245.45084971874738 197.55282581475768 L 180.40277240282094 302.64457086537215 L 189.54915028125265 179.38926261462365 L 69.5 150.00000000000003 L 189.54915028125262 120.61073738537635 L 180.40277240282091 -2.6445708653721454 L 245.45084971874735 102.44717418524232 L 359.8472275971791 55.66046700705803 L 280 150 L 280 150" stroke-opacity="1" stroke-linecap="round" stroke-miterlimit="10" stroke-width="0.001"/><path fill="none" stroke="rgb(255,0,0)" paint-order="fill stroke markers" d=" M 530 150 L 725.1184005574678 509.72457440299354 L 322.7050983124842 435.31695488854604 L 40.881599442532234 732.046587972634 L -12.70509831248421 326.335575687742 L -382 150.00000000000009 L -12.705098312484239 -26.33557568774191 L 40.88159944253209 -432.0465879726339 L 322.70509831248415 -135.3169548885461 L 725.1184005574678 -209.7245744029937 L 530 150 L 530 150" stroke-opacity="1" stroke-linecap="round" stroke-miterlimit="10" stroke-width="0.001"/><path fill="none" stroke="rgb(255,0,0)" paint-order="fill stroke markers" d=" M 350 150 L 487.26740421123327 336.91571022900644 L 267.0820393249937 264.12678195541844 L 131.73259578876673 452.43597218185886 L 132.91796067500633 220.53423027509677 L -88 150.00000000000003 L 132.9179606750063 79.46576972490324 L 131.73259578876667 -152.4359721818588 L 267.0820393249937 35.87321804458156 L 487.26740421123327 -36.91571022900652 L 350 150 L 350 150" stroke-opacity="1" stroke-linecap="round" stroke-miterlimit="10" stroke-width="0.001"/><path fill="none" stroke="rgb(255,0,0)" paint-order="fill stroke markers" d=" M 280 150 L 362.6787870774914 246.3967813759656 L 245.45084971874738 197.55282581475768 L 179.32121292250864 305.9732686724052 L 189.54915028125265 179.38926261462365 L 66 150.00000000000003 L 189.54915028125262 120.61073738537635 L 179.3212129225086 -5.973268672405169 L 245.45084971874735 102.44717418524232 L 362.6787870774914 53.60321862403437 L 280 150 L 280 150" stroke-opacity="1" stroke-linecap="round" stroke-miterlimit="10" stroke-width="0.001"/><path fill="none" stroke="rgb(255,0,0)" paint-order="fill stroke markers" d=" M 530 150 L 736.444638478717 517.9535679350881 L 322.7050983124842 435.31695488854604 L 36.555361521282975 745.3613792007661 L -12.70509831248421 326.335575687742 L -396 150.00000000000009 L -12.705098312484239 -26.33557568774191 L 36.55536152128283 -445.3613792007661 L 322.70509831248415 -135.3169548885461 L 736.444638478717 -217.9535679350883 L 530 150 L 530 150" stroke-opacity="1" stroke-linecap="round" stroke-miterlimit="10" stroke-width="0.001"/><path fill="none" stroke="rgb(255,0,0)" paint-order="fill stroke markers" d=" M 350 150 L 492.93052317185794 341.03020699505373 L 267.0820393249937 264.12678195541844 L 129.56947682814211 459.0933677959249 L 132.91796067500633 220.53423027509677 L -95 150.00000000000003 L 132.9179606750063 79.46576972490324 L 129.56947682814206 -159.0933677959249 L 267.0820393249937 35.87321804458156 L 492.9305231718579 -41.030206995053845 L 350 150 L 350 150" stroke-opacity="1" stroke-linecap="round" stroke-miterlimit="10" stroke-width="0.001"/><path fill="none" stroke="rgb(255,0,0)" paint-order="fill stroke markers" d=" M 280 150 L 365.5103465578037 248.45402975898924 L 245.45084971874738 197.55282581475768 L 178.23965344219633 309.30196647943825 L 189.54915028125265 179.38926261462365 L 62.5 150.00000000000003 L 189.54915028125262 120.61073738537635 L 178.2396534421963 -9.30196647943822 L 245.45084971874735 102.44717418524232 L 365.5103465578037 51.54597024101071 L 280 150 L 280 150" stroke-opacity="1" stroke-linecap="round" stroke-miterlimit="10" stroke-width="0.001"/><path fill="none" stroke="rgb(255,0,0)" paint-order="fill stroke markers" d=" M 530 150 L 747.7708763999664 526.1825614671828 L 322.7050983124842 435.31695488854604 L 32.22912360003369 758.6761704288983 L -12.70509831248421 326.335575687742 L -410 150.00000000000009 L -12.705098312484239 -26.33557568774191 L 32.229123600033574 -458.6761704288982 L 322.70509831248415 -135.3169548885461 L 747.7708763999663 -226.18256146718295 L 530 150 L 530 150" stroke-opacity="1" stroke-linecap="round" stroke-miterlimit="10" stroke-width="0.001"/><path fill="none" stroke="rgb(255,0,0)" paint-order="fill stroke markers" d=" M 350 150 L 498.59364213248256 345.1447037611011 L 267.0820393249937 264.12678195541844 L 127.40635786751749 465.750763409991 L 132.91796067500633 220.53423027509677 L -102 150.00000000000003 L 132.9179606750063 79.46576972490324 L 127.40635786751741 -165.75076340999095 L 267.0820393249937 35.87321804458156 L 498.5936421324825 -45.14470376110114 L 350 150 L 350 150" stroke-opacity="1" stroke-linecap="round" stroke-miterlimit="10" stroke-width="0.001"/><path fill="none" stroke="rgb(255,0,0)" paint-order="fill stroke markers" d=" M 280 150 L 368.341906038116 250.5112781420129 L 245.45084971874738 197.55282581475768 L 177.158093961884 312.6306642864713 L 189.54915028125265 179.38926261462365 L 59 150.00000000000003 L 189.54915028125262 120.61073738537635 L 177.15809396188396 -12.630664286471244 L 245.45084971874735 102.44717418524232 L 368.341906038116 49.48872185798706 L 280 150 L 280 150" stroke-opacity="1" stroke-linecap="round" stroke-miterlimit="10" stroke-width="0.001"/><path fill="none" stroke="rgb(255,0,0)" paint-order="fill stroke markers" d=" M 530 150 L 759.0971143212156 534.4115549992774 L 322.7050983124842 435.31695488854604 L 27.90288567878443 771.9909616570305 L -12.70509831248421 326.335575687742 L -424 150.00000000000009 L -12.705098312484239 -26.33557568774191 L 27.902885678784287 -471.9909616570304 L 322.70509831248415 -135.3169548885461 L 759.0971143212156 -234.4115549992776 L 530 150 L 530 150" stroke-opacity="1" stroke-linecap="round" stroke-miterlimit="10" stroke-width="0.001"/><path fill="none" stroke="rgb(255,0,0)" paint-order="fill stroke markers" d=" M 350 150 L 504.2567610931072 349.2592005271484 L 267.0820393249937 264.12678195541844 L 125.24323890689286 472.4081590240571 L 132.91796067500633 220.53423027509677 L -109 150.00000000000003 L 132.9179606750063 79.46576972490324 L 125.24323890689277 -172.40815902405706 L 267.0820393249937 35.87321804458156 L 504.2567610931072 -49.259200527148465 L 350 150 L 350 150" stroke-opacity="1" stroke-linecap="round" stroke-miterlimit="10" stroke-width="0.001"/><path fill="none" stroke="rgb(255,0,0)" paint-order="fill stroke markers" d=" M 280 150 L 371.1734655184283 252.56852652503656 L 245.45084971874738 197.55282581475768 L 176.07653448157168 315.9593620935043 L 189.54915028125265 179.38926261462365 L 55.5 150.00000000000003 L 189.54915028125262 120.61073738537635 L 176.07653448157166 -15.959362093504296 L 245.45084971874735 102.44717418524232 L 371.1734655184283 47.4314734749634 L 280 150 L 280 150" stroke-opacity="1" stroke-linecap="round" stroke-miterlimit="10" stroke-width="0.001"/><path fill="none" stroke="rgb(255,0,0)" paint-order="fill stroke markers" d=" M 530 150 L 770.423352242465 542.6405485313721 L 322.7050983124842 435.31695488854604 L 23.57664775753517 785.3057528851626 L -12.70509831248421 326.335575687742 L -438 150.00000000000009 L -12.705098312484239 -26.33557568774191 L 23.576647757535028 -485.3057528851625 L 322.70509831248415 -135.3169548885461 L 770.4233522424648 -242.6405485313722 L 530 150 L 530 150" stroke-opacity="1" stroke-linecap="round" stroke-miterlimit="10" stroke-width="0.001"/><path fill="none" stroke="rgb(255,0,0)" paint-order="fill stroke markers" d=" M 350 150 L 509.91988005373184 353.37369729319573 L 267.0820393249937 264.12678195541844 L 123.08011994626823 479.06555463812316 L 132.91796067500633 220.53423027509677 L -116 150.00000000000003 L 132.9179606750063 79.46576972490324 L 123.08011994626814 -179.0655546381231 L 267.0820393249937 35.87321804458156 L 509.9198800537318 -53.37369729319579 L 350 150 L 350 150" stroke-opacity="1" stroke-linecap="round" stroke-miterlimit="10" stroke-width="0.001"/><path fill="none" stroke="rgb(255,0,0)" paint-order="fill stroke markers" d=" M 280 150 L 374.0050249987406 254.62577490806024 L 245.45084971874738 197.55282581475768 L 174.99497500125938 319.28805990053735 L 189.54915028125265 179.38926261462365 L 52 150.00000000000003 L 189.54915028125262 120.61073738537635 L 174.99497500125932 -19.28805990053732 L 245.45084971874735 102.44717418524232 L 374.0050249987406 45.374225091939735 L 280 150 L 280 150" stroke-opacity="1" stroke-linecap="round" stroke-miterlimit="10" stroke-width="0.001"/><path fill="none" stroke="rgb(255,0,0)" paint-order="fill stroke markers" d=" M 530 150 L 781.7495901637142 550.8695420634667 L 322.7050983124842 435.31695488854604 L 19.25040983628591 798.6205441132947 L -12.70509831248421 326.335575687742 L -452 150.00000000000009 L -12.705098312484239 -26.33557568774191 L 19.25040983628577 -498.6205441132947 L 322.70509831248415 -135.3169548885461 L 781.7495901637141 -250.86954206346684 L 530 150 L 530 150" stroke-opacity="1" stroke-linecap="round" stroke-miterlimit="10" stroke-width="0.001"/><path fill="none" stroke="rgb(255,0,0)" paint-order="fill stroke markers" d=" M 350 150 L 515.5829990143565 357.488194059243 L 267.0820393249937 264.12678195541844 L 120.91700098564358 485.7229502521892 L 132.91796067500633 220.53423027509677 L -123 150.00000000000006 L 132.9179606750063 79.46576972490324 L 120.91700098564351 -185.7229502521892 L 267.0820393249937 35.87321804458156 L 515.5829990143563 -57.488194059243085 L 350 150 L 350 150" stroke-opacity="1" stroke-linecap="round" stroke-miterlimit="10" stroke-width="0.001"/><path fill="none" stroke="rgb(255,0,0)" paint-order="fill stroke markers" d=" M 280 150 L 376.83658447905293 256.6830232910839 L 245.45084971874738 197.55282581475768 L 173.91341552094707 322.6167577075704 L 189.54915028125265 179.38926261462365 L 48.5 150.00000000000003 L 189.54915028125262 120.61073738537635 L 173.913415520947 -22.616757707570372 L 245.45084971874735 102.44717418524232 L 376.83658447905293 43.31697670891609 L 280 150 L 280 150" stroke-opacity="1" stroke-linecap="round" stroke-miterlimit="10" stroke-width="0.001"/><path fill="none" stroke="rgb(255,0,0)" paint-order="fill stroke markers" d=" M 530 150 L 793.0758280849634 559.0985355955613 L 322.7050983124842 435.31695488854604 L 14.924171915036652 811.9353353414269 L -12.70509831248421 326.335575687742 L -466 150.00000000000009 L -12.705098312484239 -26.33557568774191 L 14.92417191503651 -511.9353353414268 L 322.70509831248415 -135.3169548885461 L 793.0758280849634 -259.09853559556143 L 530 150 L 530 150" stroke-opacity="1" stroke-linecap="round" stroke-miterlimit="10" stroke-width="0.001"/><path fill="none" stroke="rgb(255,0,0)" paint-order="fill stroke markers" d=" M 350 150 L 521.2461179749811 361.6026908252903 L 267.0820393249937 264.12678195541844 L 118.75388202501895 492.3803458662553 L 132.91796067500633 220.53423027509677 L -130 150.00000000000006 L 132.9179606750063 79.46576972490324 L 118.75388202501888 -192.38034586625525 L 267.0820393249937 35.87321804458156 L 521.246117974981 -61.60269082529041 L 350 150 L 350 150" stroke-opacity="1" stroke-linecap="round" stroke-miterlimit="10" stroke-width="0.001"/><path fill="none" stroke="rgb(255,0,0)" paint-order="fill stroke markers" d=" M 280 150 L 379.66814395936524 258.74027167410753 L 245.45084971874738 197.55282581475768 L 172.83185604063473 325.9454555146034 L 189.54915028125265 179.38926261462365 L 45 150.00000000000003 L 189.54915028125262 120.61073738537635 L 172.8318560406347 -25.945455514603395 L 245.45084971874735 102.44717418524232 L 379.66814395936524 41.259728325892425 L 280 150 L 280 150" stroke-opacity="1" stroke-linecap="round" stroke-miterlimit="10" stroke-width="0.001"/><path fill="none" stroke="rgb(255,0,0)" paint-order="fill stroke markers" d=" M 530 150 L 804.4020660062126 567.3275291276559 L 322.7050983124842 435.31695488854604 L 10.597933993787393 825.2501265695591 L -12.70509831248421 326.335575687742 L -480 150.00000000000009 L -12.705098312484239 -26.33557568774191 L 10.597933993787223 -525.250126569559 L 322.70509831248415 -135.3169548885461 L 804.4020660062126 -267.3275291276561 L 530 150 L 530 150" stroke-opacity="1" stroke-linecap="round" stroke-miterlimit="10" stroke-width="0.001"/><path fill="none" stroke="rgb(255,0,0)" paint-order="fill stroke markers" d=" M 350 150 L 526.9092369356057 365.7171875913376 L 267.0820393249937 264.12678195541844 L 116.59076306439432 499.0377414803214 L 132.91796067500633 220.53423027509677 L -137 150.00000000000006 L 132.9179606750063 79.46576972490324 L 116.59076306439424 -199.03774148032136 L 267.0820393249937 35.87321804458156 L 526.9092369356057 -65.71718759133773 L 350 150 L 350 150" stroke-opacity="1" stroke-linecap="round" stroke-miterlimit="10" stroke-width="0.001"/><path fill="none" stroke="rgb(255,0,0)" paint-order="fill stroke markers" d=" M 280 150 L 382.4997034396776 260.7975200571312 L 245.45084971874738 197.55282581475768 L 171.75029656032243 329.27415332163645 L 189.54915028125265 179.38926261462365 L 41.5 150.00000000000003 L 189.54915028125262 120.61073738537635 L 171.7502965603224 -29.274153321636447 L 245.45084971874735 102.44717418524232 L 382.49970343967755 39.20247994286878 L 280 150 L 280 150" stroke-opacity="1" stroke-linecap="round" stroke-miterlimit="10" stroke-width="0.001"/><path fill="none" stroke="rgb(255,0,0)" paint-order="fill stroke markers" d=" M 530 150 L 815.728303927462 575.5565226597505 L 322.7050983124842 435.31695488854604 L 6.271696072538134 838.5649177976912 L -12.70509831248421 326.335575687742 L -494 150.00000000000009 L -12.705098312484239 -26.33557568774191 L 6.271696072537964 -538.5649177976911 L 322.70509831248415 -135.3169548885461 L 815.7283039274619 -275.5565226597507 L 530 150 L 530 150" stroke-opacity="1" stroke-linecap="round" stroke-miterlimit="10" stroke-width="0.001"/><path fill="none" stroke="rgb(255,0,0)" paint-order="fill stroke markers" d=" M 350 150 L 532.5723558962304 369.8316843573849 L 267.0820393249937 264.12678195541844 L 114.4276441037697 505.69513709438746 L 132.91796067500633 220.53423027509677 L -144 150.00000000000006 L 132.9179606750063 79.46576972490324 L 114.42764410376961 -205.6951370943874 L 267.0820393249937 35.87321804458156 L 532.5723558962303 -69.83168435738503 L 350 150 L 350 150" stroke-opacity="1" stroke-linecap="round" stroke-miterlimit="10" stroke-width="0.001"/><path fill="none" stroke="rgb(255,0,0)" paint-order="fill stroke markers" d=" M 280 150 L 385.3312629199899 262.8547684401548 L 245.45084971874738 197.55282581475768 L 170.66873708001012 332.6028511286695 L 189.54915028125265 179.38926261462365 L 38 150.00000000000003 L 189.54915028125262 120.61073738537635 L 170.66873708001006 -32.60285112866947 L 245.45084971874735 102.44717418524232 L 385.33126291998985 37.145231559845115 L 280 150 L 280 150" stroke-opacity="1" stroke-linecap="round" stroke-miterlimit="10" stroke-width="0.001"/><path fill="none" stroke="rgb(255,0,0)" paint-order="fill stroke markers" d=" M 530 150 L 827.0545418487112 583.7855161918451 L 322.7050983124842 435.31695488854604 L 1.9454581512888751 851.8797090258233 L -12.70509831248421 326.335575687742 L -508 150.00000000000009 L -12.705098312484239 -26.33557568774191 L 1.9454581512887046 -551.8797090258233 L 322.70509831248415 -135.3169548885461 L 827.0545418487111 -283.7855161918453 L 530 150 L 530 150" stroke-opacity="1" stroke-linecap="round" stroke-miterlimit="10" stroke-width="0.001"/><path fill="none" stroke="rgb(255,0,0)" paint-order="fill stroke markers" d=" M 350 150 L 538.235474856855 373.94618112343227 L 267.0820393249937 264.12678195541844 L 112.26452514314506 512.3525327084535 L 132.91796067500633 220.53423027509677 L -151 150.00000000000006 L 132.9179606750063 79.46576972490324 L 112.26452514314498 -212.3525327084535 L 267.0820393249937 35.87321804458156 L 538.2354748568549 -73.94618112343235 L 350 150 L 350 150" stroke-opacity="1" stroke-linecap="round" stroke-miterlimit="10" stroke-width="0.001"/><path fill="none" stroke="rgb(255,0,0)" paint-order="fill stroke markers" d=" M 280 150 L 388.1628224003022 264.91201682317853 L 245.45084971874738 197.55282581475768 L 169.58717759969778 335.93154893570255 L 189.54915028125265 179.38926261462365 L 34.5 150.00000000000003 L 189.54915028125262 120.61073738537635 L 169.58717759969775 -35.93154893570252 L 245.45084971874735 102.44717418524232 L 388.1628224003022 35.08798317682145 L 280 150 L 280 150" stroke-opacity="1" stroke-linecap="round" stroke-miterlimit="10" stroke-width="0.001"/><path fill="none" stroke="rgb(255,0,0)" paint-order="fill stroke markers" d=" M 530 150 L 838.3807797699604 592.0145097239398 L 322.7050983124842 435.31695488854604 L -2.3807797699604123 865.1945002539555 L -12.70509831248421 326.335575687742 L -522 150.00000000000009 L -12.705098312484239 -26.33557568774191 L -2.3807797699605544 -565.1945002539554 L 322.70509831248415 -135.3169548885461 L 838.3807797699604 -292.01450972393997 L 530 150 L 530 150" stroke-opacity="1" stroke-linecap="round" stroke-miterlimit="10" stroke-width="0.001"/><path fill="none" stroke="rgb(255,0,0)" paint-order="fill stroke markers" d=" M 350 150 L 543.8985938174797 378.06067788947956 L 267.0820393249937 264.12678195541844 L 110.10140618252044 519.0099283225196 L 132.91796067500633 220.53423027509677 L -158 150.00000000000006 L 132.9179606750063 79.46576972490324 L 110.10140618252035 -219.00992832251956 L 267.0820393249937 35.87321804458156 L 543.8985938174797 -78.06067788947968 L 350 150 L 350 150" stroke-opacity="1" stroke-linecap="round" stroke-miterlimit="10" stroke-width="0.001"/><path fill="none" stroke="rgb(255,0,0)" paint-order="fill stroke markers" d=" M 280 150 L 390.9943818806146 266.9692652062022 L 245.45084971874738 197.55282581475768 L 168.50561811938547 339.2602467427356 L 189.54915028125265 179.38926261462365 L 31 150.00000000000003 L 189.54915028125262 120.61073738537635 L 168.50561811938545 -39.260246742735546 L 245.45084971874735 102.44717418524232 L 390.9943818806145 33.030734793797805 L 280 150 L 280 150" stroke-opacity="1" stroke-linecap="round" stroke-miterlimit="10" stroke-width="0.001"/><path fill="none" stroke="rgb(255,0,0)" paint-order="fill stroke markers" d=" M 530 150 L 849.7070176912098 600.2435032560345 L 322.7050983124842 435.31695488854604 L -6.707017691209671 878.5092914820877 L -12.70509831248421 326.335575687742 L -536 150.00000000000009 L -12.705098312484239 -26.33557568774191 L -6.707017691209842 -578.5092914820876 L 322.70509831248415 -135.3169548885461 L 849.7070176912097 -300.2435032560346 L 530 150 L 530 150" stroke-opacity="1" stroke-linecap="round" stroke-miterlimit="10" stroke-width="0.001"/><path fill="none" stroke="rgb(255,0,0)" paint-order="fill stroke markers" d=" M 350 150 L 549.5617127781043 382.1751746555269 L 267.0820393249937 264.12678195541844 L 107.9382872218958 525.6673239365857 L 132.91796067500633 220.53423027509677 L -165 150.00000000000006 L 132.9179606750063 79.46576972490324 L 107.9382872218957 -225.66732393658566 L 267.0820393249937 35.87321804458156 L 549.5617127781043 -82.17517465552697 L 350 150 L 350 150" stroke-opacity="1" stroke-linecap="round" stroke-miterlimit="10" stroke-width="0.001"/><path fill="none" stroke="rgb(255,0,0)" paint-order="fill stroke markers" d=" M 280 150 L 393.8259413609269 269.02651358922583 L 245.45084971874738 197.55282581475768 L 167.42405863907317 342.5889445497686 L 189.54915028125265 179.38926261462365 L 27.5 150.00000000000003 L 189.54915028125262 120.61073738537635 L 167.4240586390731 -42.5889445497686 L 245.45084971874735 102.44717418524232 L 393.82594136092683 30.973486410774143 L 280 150 L 280 150" stroke-opacity="1" stroke-linecap="round" stroke-miterlimit="10" stroke-width="0.001"/><path fill="none" stroke="rgb(255,0,0)" paint-order="fill stroke markers" d=" M 530 150 L 861.033255612459 608.4724967881291 L 322.7050983124842 435.31695488854604 L -11.03325561245893 891.8240827102198 L -12.70509831248421 326.335575687742 L -550 150.00000000000009 L -12.705098312484239 -26.33557568774191 L -11.0332556124591 -591.8240827102197 L 322.70509831248415 -135.3169548885461 L 861.0332556124589 -308.4724967881292 L 530 150 L 530 150" stroke-opacity="1" stroke-linecap="round" stroke-miterlimit="10" stroke-width="0.001"/><path fill="none" stroke="rgb(255,0,0)" paint-order="fill stroke markers" d=" M 350 150 L 555.2248317387289 386.2896714215742 L 267.0820393249937 264.12678195541844 L 105.77516826127118 532.3247195506517 L 132.91796067500633 220.53423027509677 L -172 150.00000000000006 L 132.9179606750063 79.46576972490324 L 105.77516826127108 -232.3247195506517 L 267.0820393249937 35.87321804458156 L 555.2248317387289 -86.2896714215743 L 350 150 L 350 150" stroke-opacity="1" stroke-linecap="round" stroke-miterlimit="10" stroke-width="0.001"/><path fill="none" stroke="rgb(255,0,0)" paint-order="fill stroke markers" d=" M 280 150 L 396.6575008412392 271.0837619722495 L 245.45084971874738 197.55282581475768 L 166.34249915876086 345.91764235680165 L 189.54915028125265 179.38926261462365 L 24 150.00000000000003 L 189.54915028125262 120.61073738537635 L 166.3424991587608 -45.91764235680162 L 245.45084971874735 102.44717418524232 L 396.65750084123914 28.916238027750495 L 280 150 L 280 150" stroke-opacity="1" stroke-linecap="round" stroke-miterlimit="10" stroke-width="0.001"/><path fill="none" stroke="rgb(255,0,0)" paint-order="fill stroke markers" d=" M 530 150 L 872.3594935337082 616.7014903202237 L 322.7050983124842 435.31695488854604 L -15.35949353370819 905.1388739383519 L -12.70509831248421 326.335575687742 L -564 150.00000000000009 L -12.705098312484239 -26.33557568774191 L -15.35949353370836 -605.1388739383519 L 322.70509831248415 -135.3169548885461 L 872.3594935337081 -316.70149032022385 L 530 150 L 530 150" stroke-opacity="1" stroke-linecap="round" stroke-miterlimit="10" stroke-width="0.001"/><path fill="none" stroke="rgb(255,0,0)" paint-order="fill stroke markers" d=" M 350 150 L 560.8879506993535 390.4041681876215 L 267.0820393249937 264.12678195541844 L 103.61204930064653 538.9821151647178 L 132.91796067500633 220.53423027509677 L -179 150.00000000000006 L 132.9179606750063 79.46576972490324 L 103.61204930064645 -238.9821151647178 L 267.0820393249937 35.87321804458156 L 560.8879506993535 -90.4041681876216 L 350 150 L 350 150" stroke-opacity="1" stroke-linecap="round" stroke-miterlimit="10" stroke-width="0.001"/><path fill="none" stroke="rgb(255,0,0)" paint-order="fill stroke markers" d=" M 280 150 L 399.4890603215515 273.1410103552731 L 245.45084971874738 197.55282581475768 L 165.26093967844855 349.2463401638347 L 189.54915028125265 179.38926261462365 L 20.5 150.00000000000003 L 189.54915028125262 120.61073738537635 L 165.2609396784485 -49.246340163834674 L 245.45084971874735 102.44717418524232 L 399.4890603215515 26.858989644726833 L 280 150 L 280 150" stroke-opacity="1" stroke-linecap="round" stroke-miterlimit="10" stroke-width="0.001"/><path fill="none" stroke="rgb(255,0,0)" paint-order="fill stroke markers" d=" M 530 150 L 883.6857314549576 624.9304838523183 L 322.7050983124842 435.31695488854604 L -19.68573145495745 918.4536651664841 L -12.70509831248421 326.335575687742 L -578 150.00000000000009 L -12.705098312484239 -26.33557568774191 L -19.68573145495762 -618.453665166484 L 322.70509831248415 -135.3169548885461 L 883.6857314549575 -324.9304838523185 L 530 150 L 530 150" stroke-opacity="1" stroke-linecap="round" stroke-miterlimit="10" stroke-width="0.001"/></g></svg>